<?xml version="1.0" encoding="UTF-8" standalone="no"?>
<!-- Created with Inkscape (http://www.inkscape.org/) -->

<svg
   id="svg5"
   version="1.1"
   viewBox="0 0 36.927109 36.926998"
   height="36.926998mm"
   width="36.927109mm"
   xmlns="http://www.w3.org/2000/svg"
   xmlns:svg="http://www.w3.org/2000/svg">
  <defs
     id="defs2" />
  <g
     id="layer1"
     transform="translate(-92.21312,-90.687149)">
    <path
       style="fill:#000000;fill-opacity:1;stroke-width:0.264583"
       d="m 120.75508,103.24702 c -0.0318,4.21412 0.54833,8.57839 1.17733,12.0387 0.40068,2.17435 0.52681,3.46591 0.36821,3.77032 -0.24534,0.47088 -1.67565,0.70973 -1.81116,0.25314 -1.81427,-6.72919 -2.12132,-14.01223 -2.12118,-19.367886 -6.60356,0.217466 -8.69379,0.510456 -16.39861,0.772416 -0.15994,5.54381 0.29734,12.38284 0.93449,17.81778 5.23376,0.41132 9.11224,-0.93699 14.43767,-1.1291 1.44805,-0.0522 2.07847,0.62092 1.57783,1.55637 -0.34694,0.64826 -0.847,0.8256 -2.3534,0.828 -5.55287,0.009 -8.31728,1.49349 -14.72888,0.82366 -0.96286,-0.10059 -0.85279,-0.0601 -1.11471,-1.75463 -0.853088,-6.39441 -1.154126,-11.67325 -1.129881,-18.25333 -0.448507,-0.0299 -0.69975,-0.964582 -0.480875,-1.518048 0.261513,-0.661287 1.453706,-0.73188 3.867166,-0.735923 6.58294,-0.159357 11.57848,-0.891359 17.43466,-0.789851 0.81458,0.01412 0.22756,3.792252 0.34134,5.688382 z"
       id="path908" />
  </g>
</svg>
