<?xml version="1.0" encoding="UTF-8" standalone="no"?>
<!-- Created with Inkscape (http://www.inkscape.org/) -->

<svg
   id="svg5"
   version="1.1"
   viewBox="0 0 36.927109 36.926998"
   height="36.926998mm"
   width="36.927109mm"
   xmlns="http://www.w3.org/2000/svg"
   xmlns:svg="http://www.w3.org/2000/svg">
  <defs
     id="defs2" />
  <g
     id="layer1"
     transform="translate(-92.21312,-90.687149)">
    <path
       style="fill:#000000;fill-opacity:0.955306;stroke-width:0.264583"
       d="m 101.83738,120.61042 c -0.96286,-0.10059 -0.85279,-0.0601 -1.11471,-1.75463 -0.53204,-3.44221 -0.67887,-6.26677 -0.948081,-9.78783 l -1.195517,-1.24448 c -1.46168,-1.52155 -1.604149,-2.58881 -0.475207,-3.55989 0.396171,-0.34077 1.087271,-0.54406 1.488704,-0.52259 -0.06976,-0.34077 -5.6e-5,-2.46804 2.2e-4,-3.13854 -0.448507,-0.0299 -0.69975,-0.964582 -0.480875,-1.518048 0.261513,-0.661287 1.453706,-0.73188 3.867166,-0.735923 6.58294,-0.159357 11.57761,-0.779472 17.43466,-0.789851 2.01454,-2.004825 5.97885,-7.496876 7.96117,-5.284344 1.1018,1.229752 1.05313,2.053483 -0.65738,3.620996 -2.65506,2.527359 -4.3883,4.5178 -6.96245,7.35173 -0.0318,4.21412 0.54833,8.57839 1.17733,12.0387 0.40068,2.17435 0.52681,3.46591 0.36821,3.77032 -0.24534,0.47088 -1.67565,0.70973 -1.81116,0.25314 -1.20764,-4.06922 -1.75859,-8.95377 -1.93529,-13.02897 -0.51809,0.44585 -0.81427,0.94763 -4.32057,6.17028 -1.83516,2.73348 -3.55153,5.08497 -3.81415,5.22552 -1.10931,0.59368 -1.64946,0.29125 -4.92046,-2.97205 l -3.26081,-3.25313 c 0.23397,2.30657 0.36129,5.17113 0.66598,7.08066 5.23376,0.41132 9.11224,-0.93699 14.43767,-1.1291 1.44805,-0.0522 2.07847,0.62092 1.57783,1.55637 -0.34694,0.64826 -0.847,0.8256 -2.3534,0.828 -5.55287,0.009 -8.31728,1.49349 -14.72888,0.82366 z m 16.5309,-20.669126 c -6.60356,0.217466 -8.69379,0.510456 -16.39861,0.772416 v 4.64324 c 2.41088,2.41551 4.82176,4.83101 7.23265,7.24652 3.05572,-4.52319 6.40546,-9.18385 9.16596,-12.662176 z"
       id="path908-6" />
  </g>
</svg>
