<?xml version="1.0" encoding="UTF-8" standalone="no"?>
<!-- Created with Inkscape (http://www.inkscape.org/) -->

<svg
   width="18in"
   height="18in"
   viewBox="0 0 457.20001 457.20002"
   version="1.1"
   id="svg5"
   xml:space="preserve"
   xmlns="http://www.w3.org/2000/svg"
   xmlns:svg="http://www.w3.org/2000/svg"><defs
     id="defs2"><clipPath
       clipPathUnits="userSpaceOnUse"
       id="clipPath11897"><path
         id="path11899"
         style="fill:#ff0000;fill-opacity:1;fill-rule:nonzero;stroke:none;stroke-width:0.264583"
         d="M -0.99993901,-0.99993901 V 2134.6 H 3214.1 V -0.99993901 Z M 2095.4308,601.43514 c 6.4371,0.0961 14.0817,2.65173 22.1367,8.62118 11.4783,8.50644 23.3912,16.3689 35.3089,24.23523 15.1921,10.16153 30.155,20.66174 45.0319,31.28129 18.5484,13.15437 36.4295,27.16025 53.6169,42.04394 14.7906,12.90769 29.2544,26.17639 42.2935,40.8678 15.3611,18.11039 16.8068,30.23119 8.8321,52.34978 -8.3119,16.70949 -18.2003,32.62577 -28.0717,48.45338 -6.6971,10.27036 -12.5054,21.12852 -19.5032,31.13712 1.0601,5.76175 2.0478,11.53835 2.928,17.33021 2.0879,13.97521 5.0356,28.41271 4.1098,42.64184 6.2968,15.46008 8.4329,35.2534 10.2733,44.89442 7.4548,53.85267 14.3405,108.17687 13.7836,162.62157 -12.1071,6.7842 -22.6934,17.7278 -36.3213,20.3523 -4.5819,0.8823 -5.5511,-7.6222 -7.2807,-11.9559 -1.7469,-4.3772 -2.1221,-9.1861 -3.0044,-13.8157 -1.8151,-9.5237 -3.3909,-19.089 -4.8349,-28.6758 -4.4811,0.4141 -8.9579,0.549 -13.425,0.054 -2.8508,-0.3163 -2.8919,-4.9547 -4.3114,-7.4471 -5.6891,-9.9889 -10.7018,-20.3448 -15.7044,-30.6943 -10.5407,1.3366 -22.0022,-8.2275 -22.7635,-29.1548 -0.203,-5.5789 -0.2621,-9.2838 0.464,-12.6204 -13.2079,2.4201 -17.077,-7.859 -20.1295,-25.7819 -4.2607,-39.37073 -6.5124,-78.96386 -7.275,-118.55346 0.01,-0.87162 -0.1192,-36.1301 1.8433,-38.12739 0.1413,-0.14383 0.2529,-0.22453 0.3933,-0.36639 -4.8365,-0.72298 -9.6746,-1.43529 -14.5118,-2.15284 -181.9667,-30.32115 -363.681,-62.14002 -545.468,-93.51574 -90.4768,-16.08468 -181.5164,-29.2613 -271.3845,-48.59912 -16.179,-4.57517 -33.227,-7.34764 -48.6446,-14.39704 -3.181,-1.45441 -7.987,-1.87015 -9.1266,-5.17694 -3.5256,-10.23019 -8.9471,-22.7411 -3.7692,-32.24247 4.8627,-8.92318 18.6408,-8.10019 27.9611,-12.15017 60.0461,-9.16734 121.0393,-8.90648 181.6354,-8.7421 7.355,0.0658 14.7098,0.1315 22.0648,0.19738 40.1016,0.35904 39.7384,40.86966 -0.3633,40.50917 -7.271,-0.0654 -14.5421,-0.13097 -21.8131,-0.19638 -32.3558,-0.09 -64.8123,-0.14674 -97.1791,1.21026 75.547,14.75793 151.7339,26.15353 227.5091,39.66737 181.4725,31.32151 362.8734,63.07931 544.5229,93.36381 5.6776,0.84238 11.3582,1.66677 17.0382,2.49492 -1.6028,-15.08483 6.4754,-23.78364 16.4362,-23.55205 8.8847,0.20664 19.1319,7.42847 24.9649,23.30969 0.8237,2.24285 1.665,4.47963 2.4929,6.72105 6.8063,0.85545 13.6629,1.54948 20.1517,3.68763 4.844,1.59615 9.4625,4.13525 13.1382,7.43469 0.2495,-0.38542 0.4873,-0.77814 0.739,-1.16221 8.5036,-13.60702 16.7715,-27.37803 24.5711,-41.40161 0.3326,-0.77769 1.8084,-4.55422 2.2081,-4.59351 0.3181,-0.0312 3.0241,3.8875 1.9705,1.28416 -0.7107,-1.75625 -4.5627,-6.57723 -5.5155,-7.82794 -11.762,-13.41424 -25.104,-25.26681 -38.4555,-37.06545 -16.2177,-14.06676 -33.1129,-27.2727 -50.6284,-39.6906 -14.4701,-10.33793 -29.0272,-20.55278 -43.8072,-30.44002 -13.1681,-8.69384 -26.3487,-17.37474 -38.9247,-26.92236 -23.956,-18.18699 -15.5139,-40.03075 3.7971,-39.7423 z m -686.0062,166.97482 c 9.5162,0.11837 18.9547,1.3212 28.1663,4.69275 3.3872,1.47032 6.8763,2.72405 10.1611,4.41058 18.4879,9.49249 32.6813,25.49406 44.2888,42.35091 2.8408,4.76919 5.9394,9.39405 8.5224,14.30766 15.2163,28.94621 23.4026,61.72142 27.0304,94.00461 0.098,7.40621 0.9134,14.8377 0.2946,22.21878 -2.2562,26.91151 -17.5694,50.31805 -36.7766,68.34265 -23.3362,20.5306 -48.9012,38.2974 -74.9499,55.2121 -20.1443,11.7232 -41.1354,21.9343 -64.4467,25.4326 -24.6686,4.6038 -49.812,7.0496 -74.9185,5.2823 -30.0736,-2.2091 -59.7662,-7.1127 -87.6882,-19.0949 -23.6822,-11.3359 -48.8352,-26.069 -64.0539,-48.3206 -3.1077,-4.5438 -5.0744,-9.7707 -7.6115,-14.656 -0.8887,-5.9332 -2.7648,-11.8009 -2.6659,-17.7994 0.3556,-21.63161 21.684,-43.14761 34.8201,-58.26259 32.5401,-34.66815 66.8725,-67.68071 104.3538,-97.03129 28.5559,-21.65458 58.4216,-43.25646 92.2099,-55.72736 -0.8416,-10.01776 8.1421,-20.9327 27.9481,-22.88956 2.2272,-0.22005 4.4546,-0.43984 6.6818,-0.65989 9.5238,-0.96544 19.1177,-1.93165 28.6339,-1.81335 z m 0.5912,40.38669 c -2.5004,7.53901 -10.657,14.55716 -24.3959,16.95349 -0.026,1.0137 -0.075,2.0501 -0.1613,3.12127 -0.1375,1.70902 -0.2451,3.41987 -0.3741,5.12939 1.161,0.24411 2.3224,0.48639 3.4835,0.72967 3.6187,0.7951 7.2037,1.7117 10.7709,2.69132 1.8985,-4.77465 5.7077,-9.37358 11.2221,-13.47309 4.1616,-0.72456 8.2766,-2.43663 12.4762,-2.35902 0.28,0.005 0.5605,0.0185 0.8413,0.0403 7.276,0.56761 12.6284,4.31459 16.4311,9.51415 9.804,3.41146 16.2135,8.75824 20.3755,15.43111 -1.0938,-1.91754 -2.1424,-3.85937 -3.3042,-5.73971 -8.9788,-13.27523 -20.2594,-24.57098 -35.3436,-30.32734 -3.9596,-1.06592 -7.9778,-1.56191 -12.0215,-1.71153 z m 51.8625,39.85183 c 1.28,2.3885 2.3148,4.92247 3.1352,7.58664 0.5028,0.32091 0.7326,0.46656 1.2071,0.76893 -1.3863,-2.81636 -2.82,-5.60726 -4.3423,-8.35557 z m 695.8516,10.94198 c -0.3263,0.20455 0.42,3.74705 2.2055,5.98413 -0.2047,-0.77729 -0.4175,-1.55212 -0.6495,-2.32182 -0.8542,-2.83276 -1.3727,-3.77727 -1.556,-3.66231 z m -822.3375,5.60379 c 0.014,0.17923 0.029,0.37674 0.043,0.56171 0.4549,-0.097 0.9099,-0.19412 1.3653,-0.28678 -0.4696,-0.0905 -0.9384,-0.18507 -1.4082,-0.27493 z m -41.6491,4.87929 c -4.7581,3.62572 -9.2881,7.10488 -15.2657,11.66802 -35.6752,27.99752 -68.3524,59.47246 -99.3382,92.50908 -7.6676,8.77316 -16.0612,16.97225 -21.5134,27.39006 -0.7528,1.4384 -4.4785,7.2775 -2.9636,10.2412 0.3294,0.6446 1.3623,0.49 2.0433,0.7349 12.772,16.7206 30.8943,27.6269 49.6812,36.3125 23.4187,9.7484 48.2252,13.5514 73.3283,15.3303 3.3108,0.2299 6.6213,0.2207 9.9322,0.2848 -3.4418,-4.8392 0.7816,-9.9336 7.5866,-18.7824 -0.906,-0.9157 0.1786,-1.6759 1.8273,-2.4086 1.2972,-1.7126 2.6658,-3.5851 4.0664,-5.5697 -5.2944,-0.7633 -10.4603,-2.1388 -15.3613,-4.5289 -2.8201,-1.3753 -5.3097,-3.3449 -7.9644,-5.0173 -2.7132,-3.8115 -6.2708,-7.1452 -8.1395,-11.4344 -6.0358,-13.8541 3.1327,-39.4798 6.6487,-53.89441 6.6286,-23.51135 10.3143,-47.63402 13.27,-71.83334 0.368,-3.54468 0.7478,-7.08806 1.1038,-10.63398 0.062,-0.61513 0.5369,-5.51436 1.0583,-10.36783 z m 179.1581,1.84899 c -0.6087,0.9711 -1.1038,2.17686 -1.3886,3.72224 -0.3793,1.67645 -0.7094,3.36121 -0.9999,5.0524 0.042,0.005 0.083,0.005 0.1261,0.0109 2.1521,0.28019 4.0287,0.5737 5.7789,0.87749 -1.104,-3.24649 -2.256,-6.47565 -3.5165,-9.66298 z m -61.7756,44.4536 c -1.6007,2.7859 -3.8061,6.67586 -4.6669,8.18557 -0.065,0.12314 -0.1395,0.2413 -0.2051,0.36431 2.7509,0.41547 5.4975,0.88016 8.2444,1.34101 0.01,-0.003 0.014,-0.007 0.02,-0.0103 -0.088,-2.47856 -0.1661,-4.9576 -0.229,-7.43675 v -0.13332 c -1.0544,-0.77015 -2.1088,-1.54003 -3.1626,-2.31047 z m -61.5074,21.98833 c 0.083,0.4776 0.1632,0.95578 0.2455,1.43351 0.2001,-0.31908 0.4472,-0.72821 0.6408,-1.04026 -0.3202,-0.10766 -0.5827,-0.2698 -0.8863,-0.39325 z m 117.197,33.17833 c -0.021,1.84311 -0.046,3.68631 -0.066,5.52939 -0.061,3.40331 -0.2969,6.52071 -0.6858,9.40975 3.463,-3.43503 6.806,-7.08774 9.7648,-11.07527 -3.1832,-0.31451 -6.2941,-1.59838 -9.0129,-3.86387 z m -153.804,20.54863 c -0.5013,1.94987 -1.0305,3.88892 -1.5932,5.81464 1.0611,0.063 2.1689,0.10705 3.3099,0.13229 -0.6407,-1.93889 -1.2062,-3.93541 -1.7167,-5.94693 z m -7.1732,2.80344 c -0.5621,-0.0399 -1.2782,0.13004 -2.202,0.5855 -3.1035,0.50294 2.982,1.81959 4.2763,2.06912 -0.3146,-1.3761 -0.7914,-2.56358 -2.0743,-2.65462 z m 105.545,33.58964 c -12.4243,2.6276 -24.9791,4.5387 -37.5884,6.0467 -4.9091,4.4874 -9.7952,9.0001 -14.7501,13.4369 -4.3982,3.9387 -8.5452,7.6196 -12.7201,11.2159 17.8286,-3.0191 33.8918,-10.9902 49.3158,-20.1621 5.2615,-3.4839 10.5123,-6.9957 15.7428,-10.5374 z m 774.6581,20.3993 c -0.1423,0.1043 0.7768,1.4792 1.3374,1.5658 0.223,0.035 0.4471,0.062 0.6703,0.095 -0.5869,-0.6262 -1.207,-1.1802 -1.8774,-1.6195 -0.068,-0.044 -0.1099,-0.056 -0.1303,-0.041 z" /></clipPath><clipPath
       clipPathUnits="userSpaceOnUse"
       id="clipPath11907"><path
         id="path11909"
         style="fill:#ff0000;fill-opacity:1;fill-rule:nonzero;stroke:none;stroke-width:0.264583"
         d="M 691.15009,455.36963 V 1371.7696 H 2521.95 V 455.36963 Z M 2095.4308,601.43514 c 6.4371,0.0961 14.0817,2.65173 22.1367,8.62118 11.4783,8.50644 23.3912,16.3689 35.3089,24.23523 15.1921,10.16153 30.155,20.66174 45.0319,31.28129 18.5484,13.15437 36.4295,27.16025 53.6169,42.04394 14.7906,12.90769 29.2544,26.17639 42.2935,40.8678 15.3611,18.11039 16.8068,30.23119 8.8321,52.34978 -8.3119,16.70949 -18.2003,32.62577 -28.0717,48.45338 -6.6971,10.27036 -12.5054,21.12852 -19.5032,31.13712 1.0601,5.76175 2.0478,11.53835 2.928,17.33021 2.0879,13.97521 5.0356,28.41271 4.1098,42.64184 6.2968,15.46008 8.4329,35.2534 10.2733,44.89442 7.4548,53.85267 14.3405,108.17687 13.7836,162.62157 -12.1071,6.7842 -22.6934,17.7278 -36.3213,20.3523 -4.5819,0.8823 -5.5511,-7.6222 -7.2807,-11.9559 -1.7469,-4.3772 -2.1221,-9.1861 -3.0044,-13.8157 -1.8151,-9.5237 -3.3909,-19.089 -4.8349,-28.6758 -4.4811,0.4141 -8.9579,0.549 -13.425,0.054 -2.8508,-0.3163 -2.8919,-4.9547 -4.3114,-7.4471 -5.6891,-9.9889 -10.7018,-20.3448 -15.7044,-30.6943 -10.5407,1.3366 -22.0022,-8.2275 -22.7635,-29.1548 -0.203,-5.5789 -0.2621,-9.2838 0.464,-12.6204 -13.2079,2.4201 -17.077,-7.859 -20.1295,-25.7819 -4.2607,-39.37073 -6.5124,-78.96386 -7.275,-118.55346 0.01,-0.87162 -0.1192,-36.1301 1.8433,-38.12739 0.1308,-0.13311 0.2478,-0.23752 0.3778,-0.36896 -4.8313,-0.72221 -9.6643,-1.43349 -14.4963,-2.15027 -181.9667,-30.32115 -363.681,-62.14002 -545.468,-93.51574 -90.4768,-16.08468 -181.5164,-29.2613 -271.3845,-48.59912 -16.179,-4.57517 -33.227,-7.34764 -48.6446,-14.39704 -3.181,-1.45441 -7.987,-1.87015 -9.1266,-5.17694 -3.5256,-10.23019 -8.9471,-22.7411 -3.7692,-32.24247 4.8627,-8.92318 18.6408,-8.10019 27.9611,-12.15017 60.0461,-9.16734 121.0393,-8.90648 181.6354,-8.7421 7.355,0.0658 14.7098,0.1315 22.0648,0.19738 40.1016,0.35904 39.7384,40.86966 -0.3633,40.50917 -7.271,-0.0654 -14.5421,-0.13097 -21.8131,-0.19638 -32.3558,-0.09 -64.8123,-0.14674 -97.1791,1.21026 75.547,14.75793 151.7339,26.15353 227.5091,39.66737 181.4725,31.32151 362.8734,63.07931 544.5229,93.36381 5.6296,0.83524 11.2621,1.65259 16.894,2.47375 -1.6407,-15.13478 6.6019,-23.76289 16.5804,-23.53088 8.8847,0.20664 19.1319,7.42847 24.9649,23.30969 0.8237,2.24285 1.665,4.47963 2.4929,6.72105 6.8063,0.85545 13.6629,1.54948 20.1517,3.68763 4.844,1.59615 9.4625,4.13525 13.1382,7.43469 0.2495,-0.38542 0.4873,-0.77814 0.739,-1.16221 8.5036,-13.60702 16.7715,-27.37803 24.5711,-41.40161 0.3326,-0.77769 1.8084,-4.55422 2.2081,-4.59351 0.3181,-0.0312 3.0241,3.8875 1.9705,1.28416 -0.7107,-1.75625 -4.5627,-6.57723 -5.5155,-7.82794 -11.762,-13.41424 -25.104,-25.26681 -38.4555,-37.06545 -16.2177,-14.06676 -33.1129,-27.2727 -50.6284,-39.6906 -14.4701,-10.33793 -29.0272,-20.55278 -43.8072,-30.44002 -13.1681,-8.69384 -26.3487,-17.37474 -38.9247,-26.92236 -23.956,-18.18699 -15.5139,-40.03075 3.7971,-39.7423 z m -686.0062,166.97482 c 9.5162,0.11837 18.9547,1.3212 28.1663,4.69275 3.3872,1.47032 6.8763,2.72405 10.1611,4.41058 18.4879,9.49249 32.6813,25.49406 44.2888,42.35091 2.8408,4.76919 5.9394,9.39405 8.5224,14.30766 15.2163,28.94621 23.4026,61.72142 27.0304,94.00461 0.098,7.40621 0.9134,14.8377 0.2946,22.21878 -2.2562,26.91151 -17.5694,50.31805 -36.7766,68.34265 -23.3362,20.5306 -48.9012,38.2974 -74.9499,55.2121 -20.1443,11.7232 -41.1354,21.9343 -64.4467,25.4326 -24.6686,4.6038 -49.812,7.0496 -74.9185,5.2823 -30.0736,-2.2091 -59.7662,-7.1127 -87.6882,-19.0949 -23.6822,-11.3359 -48.8352,-26.069 -64.0539,-48.3206 -3.1077,-4.5438 -5.0744,-9.7707 -7.6115,-14.656 -0.8887,-5.9332 -2.7648,-11.8009 -2.6659,-17.7994 0.3556,-21.63161 21.684,-43.14761 34.8201,-58.26259 32.5401,-34.66815 66.8725,-67.68071 104.3538,-97.03129 28.5559,-21.65458 58.4216,-43.25646 92.2099,-55.72736 -0.8416,-10.01776 8.1421,-20.9327 27.9481,-22.88956 2.2272,-0.22005 4.4546,-0.43984 6.6818,-0.65989 9.5238,-0.96544 19.1177,-1.93165 28.6339,-1.81335 z m 0.5912,40.38669 c -2.5004,7.53901 -10.657,14.55716 -24.3959,16.95349 -0.026,1.0137 -0.075,2.0501 -0.1613,3.12127 -0.1375,1.70902 -0.2451,3.41987 -0.3741,5.12939 1.161,0.24411 2.3224,0.48639 3.4835,0.72967 3.6187,0.7951 7.2037,1.7117 10.7709,2.69132 1.8985,-4.77465 5.7077,-9.37358 11.2221,-13.47309 4.1616,-0.72456 8.2766,-2.43663 12.4762,-2.35902 0.28,0.005 0.5605,0.0185 0.8413,0.0403 7.276,0.56761 12.6284,4.31459 16.4311,9.51415 9.804,3.41146 16.2135,8.75824 20.3755,15.43111 -1.0938,-1.91754 -2.1424,-3.85937 -3.3042,-5.73971 -8.9788,-13.27523 -20.2594,-24.57098 -35.3436,-30.32734 -3.9596,-1.06592 -7.9778,-1.56191 -12.0215,-1.71153 z m 51.8625,39.85183 c 1.28,2.3885 2.3148,4.92247 3.1352,7.58664 0.5028,0.32091 0.7326,0.46656 1.2071,0.76893 -1.3863,-2.81636 -2.82,-5.60726 -4.3423,-8.35557 z m 695.8516,10.94198 c -0.3263,0.20455 0.42,3.74705 2.2055,5.98413 -0.2047,-0.77729 -0.4175,-1.55212 -0.6495,-2.32182 -0.8542,-2.83276 -1.3727,-3.77727 -1.556,-3.66231 z m -822.3375,5.60379 c 0.014,0.17923 0.029,0.37674 0.043,0.56171 0.4549,-0.097 0.9099,-0.19412 1.3653,-0.28678 -0.4696,-0.0905 -0.9384,-0.18507 -1.4082,-0.27493 z m -41.6491,4.87929 c -4.7581,3.62572 -9.2881,7.10488 -15.2657,11.66802 -35.6752,27.99752 -68.3524,59.47246 -99.3382,92.50908 -7.6676,8.77316 -16.0612,16.97225 -21.5134,27.39006 -0.7528,1.4384 -4.4785,7.2775 -2.9636,10.2412 0.3294,0.6446 1.3623,0.49 2.0433,0.7349 12.772,16.7206 30.8943,27.6269 49.6812,36.3125 23.4187,9.7484 48.2252,13.5514 73.3283,15.3303 3.3436,0.2322 6.6881,0.3478 10.0314,0.4109 -3.6064,-4.8771 0.6231,-9.9827 7.4874,-18.9085 -0.906,-0.9157 0.1786,-1.6759 1.8273,-2.4086 1.2972,-1.7126 2.6658,-3.5851 4.0664,-5.5697 -5.2944,-0.7633 -10.4603,-2.1388 -15.3613,-4.5289 -2.8201,-1.3753 -5.3097,-3.3449 -7.9644,-5.0173 -2.7132,-3.8115 -6.2708,-7.1452 -8.1395,-11.4344 -6.0358,-13.8541 3.1327,-39.4798 6.6487,-53.89441 6.6286,-23.51135 10.3143,-47.63402 13.27,-71.83334 0.368,-3.54468 0.7478,-7.08806 1.1038,-10.63398 0.062,-0.61513 0.5369,-5.51436 1.0583,-10.36783 z m 179.1581,1.84899 c -0.6087,0.9711 -1.1038,2.17686 -1.3886,3.72224 -0.3793,1.67645 -0.7094,3.36121 -0.9999,5.0524 0.042,0.005 0.083,0.005 0.1261,0.0109 2.1521,0.28019 4.0287,0.5737 5.7789,0.87749 -1.104,-3.24649 -2.256,-6.47565 -3.5165,-9.66298 z m -61.7756,44.4536 c -1.6007,2.7859 -3.8061,6.67586 -4.6669,8.18557 -0.065,0.12314 -0.1395,0.2413 -0.2051,0.36431 2.7509,0.41547 5.4975,0.88016 8.2444,1.34101 0.01,-0.003 0.014,-0.007 0.02,-0.0103 -0.088,-2.47856 -0.1661,-4.9576 -0.229,-7.43675 v -0.13332 c -1.0544,-0.77015 -2.1088,-1.54003 -3.1626,-2.31047 z m -61.5074,21.98833 c 0.083,0.4776 0.1632,0.95578 0.2455,1.43351 0.2001,-0.31908 0.4472,-0.72821 0.6408,-1.04026 -0.3202,-0.10766 -0.5827,-0.2698 -0.8863,-0.39325 z m 117.197,33.17833 c -0.021,1.84311 -0.046,3.68631 -0.066,5.52939 -0.062,3.4562 -0.3043,6.61676 -0.7044,9.5431 3.487,-3.45331 6.8057,-7.19561 9.7834,-11.20862 -3.1832,-0.31451 -6.2941,-1.59838 -9.0129,-3.86387 z m -153.804,20.54863 c -0.5013,1.94987 -1.0305,3.88892 -1.5932,5.81464 1.0611,0.063 2.1689,0.10705 3.3099,0.13229 -0.6407,-1.93889 -1.2062,-3.93541 -1.7167,-5.94693 z m -7.1732,2.80344 c -0.5621,-0.0399 -1.2782,0.13004 -2.202,0.5855 -3.1035,0.50294 2.982,1.81959 4.2763,2.06912 -0.3146,-1.3761 -0.7914,-2.56358 -2.0743,-2.65462 z m 105.545,33.58964 c -12.4243,2.6276 -24.9791,4.5387 -37.5884,6.0467 -4.9091,4.4874 -9.7952,9.0001 -14.7501,13.4369 -4.3982,3.9387 -8.5452,7.6196 -12.7201,11.2159 17.8286,-3.0191 33.8918,-10.9902 49.3158,-20.1621 5.2615,-3.4839 10.5123,-6.9957 15.7428,-10.5374 z m 774.6581,20.3993 c -0.1423,0.1043 0.7768,1.4792 1.3374,1.5658 0.223,0.035 0.4471,0.062 0.6703,0.095 -0.5869,-0.6262 -1.207,-1.1802 -1.8774,-1.6195 -0.068,-0.044 -0.1099,-0.056 -0.1303,-0.041 z" /></clipPath><clipPath
       clipPathUnits="userSpaceOnUse"
       id="clipPath11917"><path
         id="path11919"
         style="fill:#ff0000;fill-opacity:1;fill-rule:nonzero;stroke:none;stroke-width:0.264583"
         d="m 1321.2553,633.50243 v 5.32371 c 49.525,-5.00076 99.5245,-4.81161 149.2576,-4.6767 7.355,0.0658 14.7098,0.1315 22.0648,0.19738 40.1016,0.35904 39.7384,40.86966 -0.3633,40.50917 -7.271,-0.0654 -14.5421,-0.13097 -21.8131,-0.19638 -32.3558,-0.09 -64.8123,-0.14674 -97.1791,1.21026 75.547,14.75793 151.7339,26.15353 227.5091,39.66737 181.4725,31.32151 362.8734,63.07931 544.5229,93.36381 5.6296,0.83524 11.2621,1.65259 16.894,2.47375 -1.6407,-15.13478 6.6019,-23.76289 16.5804,-23.53088 8.8847,0.20664 19.1319,7.42847 24.9649,23.30969 0.8237,2.24285 1.665,4.47963 2.4929,6.72105 6.8063,0.85545 13.6629,1.54948 20.1517,3.68763 4.844,1.59615 9.4625,4.13525 13.1382,7.43469 0.2495,-0.38542 0.4873,-0.77814 0.739,-1.16221 2.751,-4.40203 5.4261,-8.85338 8.1199,-13.29272 v -54.93774 c -7.5738,-7.33801 -15.4346,-14.38683 -23.3412,-21.37389 -16.2177,-14.06676 -33.1129,-27.2727 -50.6284,-39.6906 -14.4701,-10.33793 -29.0272,-20.55278 -43.8072,-30.44002 -13.1681,-8.69384 -26.3487,-17.37474 -38.9247,-26.92236 -3.308,-2.51137 -5.9417,-5.09209 -8.0709,-7.67501 z m 830.4372,0 c 0.3959,0.26133 0.788,0.52779 1.1839,0.78912 15.1921,10.16153 30.155,20.66174 45.0319,31.28129 17.4123,12.34866 34.2126,25.47784 50.4269,39.34902 v -71.41943 z m -830.4372,73.0431 v 98.28806 c 8.0799,-4.17132 16.3667,-7.90925 24.9055,-11.06083 -0.8416,-10.01776 8.1421,-20.9327 27.9481,-22.88956 2.2272,-0.22005 4.4546,-0.43984 6.6818,-0.65989 9.5238,-0.96544 19.1177,-1.93165 28.6339,-1.81335 9.5162,0.11837 18.9547,1.3212 28.1663,4.69275 3.3872,1.47032 6.8763,2.72405 10.1611,4.41058 18.4879,9.49249 32.6813,25.49406 44.2888,42.35091 2.8408,4.76919 5.9394,9.39405 8.5224,14.30766 15.2163,28.94621 23.4026,61.72142 27.0304,94.00461 0.098,7.40621 0.9134,14.8377 0.2946,22.21878 -2.2562,26.91151 -17.5694,50.31805 -36.7766,68.34265 -23.3362,20.5306 -48.9012,38.2974 -74.9499,55.2121 -20.1443,11.7232 -41.1354,21.9343 -64.4467,25.4326 -10.0852,1.882 -20.2507,3.3948 -30.4597,4.4152 v 294.2477 h 927.0799 v -229.8547 c -3.3122,-1.0509 -4.2468,-8.0736 -5.7666,-11.8815 -1.7469,-4.3772 -2.1221,-9.1861 -3.0044,-13.8157 -1.8151,-9.5237 -3.3909,-19.089 -4.8349,-28.6758 -4.4811,0.4141 -8.9579,0.549 -13.425,0.054 -2.8508,-0.3163 -2.8919,-4.9547 -4.3114,-7.4471 -5.6891,-9.9889 -10.7018,-20.3448 -15.7044,-30.6943 -10.5407,1.3366 -22.0022,-8.2275 -22.7635,-29.1548 -0.203,-5.5789 -0.2621,-9.2838 0.464,-12.6204 -13.2079,2.4201 -17.077,-7.859 -20.1295,-25.7819 -4.2607,-39.37073 -6.5124,-78.96386 -7.275,-118.55346 0.01,-0.87162 -0.1192,-36.1301 1.8433,-38.12739 0.1308,-0.13311 0.2478,-0.23752 0.3778,-0.36896 -4.8313,-0.72221 -9.6643,-1.43349 -14.4963,-2.15027 -181.9667,-30.32115 -363.681,-62.14002 -545.468,-93.51574 -90.4768,-16.08468 -181.5164,-29.2613 -271.3845,-48.59912 -0.3965,-0.1121 -0.804,-0.20259 -1.2015,-0.31263 z m 88.7605,102.25112 c -2.5025,7.54517 -10.6375,14.59693 -24.397,16.9876 -0.026,1.00303 -0.075,2.02792 -0.1602,3.08716 -0.1375,1.70902 -0.2451,3.41987 -0.3741,5.12939 1.161,0.24411 2.3224,0.48639 3.4835,0.72967 3.6187,0.7951 7.2037,1.7117 10.7709,2.69132 1.8985,-4.77465 5.7077,-9.37358 11.2221,-13.47309 4.1616,-0.72456 8.2766,-2.43663 12.4762,-2.35902 0.28,0.005 0.5605,0.0185 0.8413,0.0403 7.276,0.56761 12.6284,4.31459 16.4311,9.51415 14.1744,4.93221 21.2596,13.90571 24.7039,25.091 0.5535,0.35332 0.8098,0.51557 1.3291,0.84645 -2.7263,-5.54749 -5.7046,-10.9746 -8.9617,-16.24605 -8.9788,-13.27523 -20.2594,-24.57098 -35.3436,-30.32734 -3.9596,-1.06592 -7.9778,-1.56191 -12.0215,-1.71153 z m 747.7141,50.79381 c -0.3263,0.20455 0.42,3.74705 2.2055,5.98413 -0.2047,-0.77729 -0.4175,-1.55212 -0.6495,-2.32182 -0.8542,-2.83276 -1.3727,-3.77727 -1.556,-3.66231 z m -822.3375,5.60379 c 0.014,0.17923 0.029,0.37674 0.043,0.56171 0.4549,-0.097 0.9099,-0.19412 1.3653,-0.28678 -0.4696,-0.0905 -0.9384,-0.18507 -1.4082,-0.27493 z m 137.5141,6.72053 c -0.611,0.97237 -1.1081,2.1804 -1.3937,3.72999 -0.3793,1.67645 -0.7094,3.36121 -0.9999,5.0524 0.042,0.005 0.083,0.005 0.1261,0.0109 2.165,0.28186 4.0518,0.57687 5.8105,0.88265 -1.1063,-3.25316 -2.2798,-6.48211 -3.543,-9.67589 z m -61.7807,44.46135 c -1.6007,2.7859 -3.8061,6.67586 -4.6669,8.18557 -0.065,0.12314 -0.1395,0.2413 -0.2051,0.36431 2.7509,0.41547 5.4975,0.88016 8.2444,1.34101 0.01,-0.003 0.014,-0.007 0.02,-0.0103 -0.088,-2.47856 -0.1661,-4.9576 -0.229,-7.43675 v -0.13332 c -1.0544,-0.77015 -2.1088,-1.54003 -3.1626,-2.31047 z m -61.5074,21.98833 c 0.082,0.47157 0.1611,0.94374 0.2424,1.41542 0.2062,-0.32878 0.4446,-0.70083 0.6439,-1.02217 -0.3202,-0.10766 -0.5827,-0.2698 -0.8863,-0.39325 z m 117.197,33.17833 c -0.021,1.84311 -0.046,3.68631 -0.066,5.52939 -0.062,3.4562 -0.3043,6.61676 -0.7044,9.5431 3.487,-3.45331 6.8057,-7.19561 9.7834,-11.20862 -3.1832,-0.31451 -6.2941,-1.59838 -9.0129,-3.86387 z m -55.4322,56.94171 c -12.4243,2.6276 -24.9791,4.5387 -37.5884,6.0467 -4.9091,4.4874 -9.7952,9.0001 -14.7501,13.4369 -4.3982,3.9387 -8.5452,7.6196 -12.7201,11.2159 17.8286,-3.0191 33.8918,-10.9902 49.3158,-20.1621 5.2615,-3.4839 10.5123,-6.9957 15.7428,-10.5374 z m 774.6581,20.3993 c -0.1423,0.1043 0.7768,1.4792 1.3374,1.5658 0.223,0.035 0.4471,0.062 0.6703,0.095 -0.5869,-0.6262 -1.207,-1.1802 -1.8774,-1.6195 -0.068,-0.044 -0.1099,-0.056 -0.1303,-0.041 z" /></clipPath><clipPath
       clipPathUnits="userSpaceOnUse"
       id="clipPath11917-8"><path
         id="path11919-1"
         style="fill:#ff0000;fill-opacity:1;fill-rule:nonzero;stroke:none;stroke-width:0.264583"
         d="m 1321.2553,633.50243 v 5.32371 c 49.525,-5.00076 99.5245,-4.81161 149.2576,-4.6767 7.355,0.0658 14.7098,0.1315 22.0648,0.19738 40.1016,0.35904 39.7384,40.86966 -0.3633,40.50917 -7.271,-0.0654 -14.5421,-0.13097 -21.8131,-0.19638 -32.3558,-0.09 -64.8123,-0.14674 -97.1791,1.21026 75.547,14.75793 151.7339,26.15353 227.5091,39.66737 181.4725,31.32151 362.8734,63.07931 544.5229,93.36381 5.6296,0.83524 11.2621,1.65259 16.894,2.47375 -1.6407,-15.13478 6.6019,-23.76289 16.5804,-23.53088 8.8847,0.20664 19.1319,7.42847 24.9649,23.30969 0.8237,2.24285 1.665,4.47963 2.4929,6.72105 6.8063,0.85545 13.6629,1.54948 20.1517,3.68763 4.844,1.59615 9.4625,4.13525 13.1382,7.43469 0.2495,-0.38542 0.4873,-0.77814 0.739,-1.16221 2.751,-4.40203 5.4261,-8.85338 8.1199,-13.29272 v -54.93774 c -7.5738,-7.33801 -15.4346,-14.38683 -23.3412,-21.37389 -16.2177,-14.06676 -33.1129,-27.2727 -50.6284,-39.6906 -14.4701,-10.33793 -29.0272,-20.55278 -43.8072,-30.44002 -13.1681,-8.69384 -26.3487,-17.37474 -38.9247,-26.92236 -3.308,-2.51137 -5.9417,-5.09209 -8.0709,-7.67501 z m 830.4372,0 c 0.3959,0.26133 0.788,0.52779 1.1839,0.78912 15.1921,10.16153 30.155,20.66174 45.0319,31.28129 17.4123,12.34866 34.2126,25.47784 50.4269,39.34902 v -71.41943 z m -830.4372,73.0431 v 98.28806 c 8.0799,-4.17132 16.3667,-7.90925 24.9055,-11.06083 -0.8416,-10.01776 8.1421,-20.9327 27.9481,-22.88956 2.2272,-0.22005 4.4546,-0.43984 6.6818,-0.65989 9.5238,-0.96544 19.1177,-1.93165 28.6339,-1.81335 9.5162,0.11837 18.9547,1.3212 28.1663,4.69275 3.3872,1.47032 6.8763,2.72405 10.1611,4.41058 18.4879,9.49249 32.6813,25.49406 44.2888,42.35091 2.8408,4.76919 5.9394,9.39405 8.5224,14.30766 15.2163,28.94621 23.4026,61.72142 27.0304,94.00461 0.098,7.40621 0.9134,14.8377 0.2946,22.21878 -2.2562,26.91151 -17.5694,50.31805 -36.7766,68.34265 -23.3362,20.5306 -48.9012,38.2974 -74.9499,55.2121 -20.1443,11.7232 -41.1354,21.9343 -64.4467,25.4326 -10.0852,1.882 -20.2507,3.3948 -30.4597,4.4152 v 294.2477 h 927.0799 v -229.8547 c -3.3122,-1.0509 -4.2468,-8.0736 -5.7666,-11.8815 -1.7469,-4.3772 -2.1221,-9.1861 -3.0044,-13.8157 -1.8151,-9.5237 -3.3909,-19.089 -4.8349,-28.6758 -4.4811,0.4141 -8.9579,0.549 -13.425,0.054 -2.8508,-0.3163 -2.8919,-4.9547 -4.3114,-7.4471 -5.6891,-9.9889 -10.7018,-20.3448 -15.7044,-30.6943 -10.5407,1.3366 -22.0022,-8.2275 -22.7635,-29.1548 -0.203,-5.5789 -0.2621,-9.2838 0.464,-12.6204 -13.2079,2.4201 -17.077,-7.859 -20.1295,-25.7819 -4.2607,-39.37073 -6.5124,-78.96386 -7.275,-118.55346 0.01,-0.87162 -0.1192,-36.1301 1.8433,-38.12739 0.1308,-0.13311 0.2478,-0.23752 0.3778,-0.36896 -4.8313,-0.72221 -9.6643,-1.43349 -14.4963,-2.15027 -181.9667,-30.32115 -363.681,-62.14002 -545.468,-93.51574 -90.4768,-16.08468 -181.5164,-29.2613 -271.3845,-48.59912 -0.3965,-0.1121 -0.804,-0.20259 -1.2015,-0.31263 z m 88.7605,102.25112 c -2.5025,7.54517 -10.6375,14.59693 -24.397,16.9876 -0.026,1.00303 -0.075,2.02792 -0.1602,3.08716 -0.1375,1.70902 -0.2451,3.41987 -0.3741,5.12939 1.161,0.24411 2.3224,0.48639 3.4835,0.72967 3.6187,0.7951 7.2037,1.7117 10.7709,2.69132 1.8985,-4.77465 5.7077,-9.37358 11.2221,-13.47309 4.1616,-0.72456 8.2766,-2.43663 12.4762,-2.35902 0.28,0.005 0.5605,0.0185 0.8413,0.0403 7.276,0.56761 12.6284,4.31459 16.4311,9.51415 14.1744,4.93221 21.2596,13.90571 24.7039,25.091 0.5535,0.35332 0.8098,0.51557 1.3291,0.84645 -2.7263,-5.54749 -5.7046,-10.9746 -8.9617,-16.24605 -8.9788,-13.27523 -20.2594,-24.57098 -35.3436,-30.32734 -3.9596,-1.06592 -7.9778,-1.56191 -12.0215,-1.71153 z m 747.7141,50.79381 c -0.3263,0.20455 0.42,3.74705 2.2055,5.98413 -0.2047,-0.77729 -0.4175,-1.55212 -0.6495,-2.32182 -0.8542,-2.83276 -1.3727,-3.77727 -1.556,-3.66231 z m -822.3375,5.60379 c 0.014,0.17923 0.029,0.37674 0.043,0.56171 0.4549,-0.097 0.9099,-0.19412 1.3653,-0.28678 -0.4696,-0.0905 -0.9384,-0.18507 -1.4082,-0.27493 z m 137.5141,6.72053 c -0.611,0.97237 -1.1081,2.1804 -1.3937,3.72999 -0.3793,1.67645 -0.7094,3.36121 -0.9999,5.0524 0.042,0.005 0.083,0.005 0.1261,0.0109 2.165,0.28186 4.0518,0.57687 5.8105,0.88265 -1.1063,-3.25316 -2.2798,-6.48211 -3.543,-9.67589 z m -61.7807,44.46135 c -1.6007,2.7859 -3.8061,6.67586 -4.6669,8.18557 -0.065,0.12314 -0.1395,0.2413 -0.2051,0.36431 2.7509,0.41547 5.4975,0.88016 8.2444,1.34101 0.01,-0.003 0.014,-0.007 0.02,-0.0103 -0.088,-2.47856 -0.1661,-4.9576 -0.229,-7.43675 v -0.13332 c -1.0544,-0.77015 -2.1088,-1.54003 -3.1626,-2.31047 z m -61.5074,21.98833 c 0.082,0.47157 0.1611,0.94374 0.2424,1.41542 0.2062,-0.32878 0.4446,-0.70083 0.6439,-1.02217 -0.3202,-0.10766 -0.5827,-0.2698 -0.8863,-0.39325 z m 117.197,33.17833 c -0.021,1.84311 -0.046,3.68631 -0.066,5.52939 -0.062,3.4562 -0.3043,6.61676 -0.7044,9.5431 3.487,-3.45331 6.8057,-7.19561 9.7834,-11.20862 -3.1832,-0.31451 -6.2941,-1.59838 -9.0129,-3.86387 z m -55.4322,56.94171 c -12.4243,2.6276 -24.9791,4.5387 -37.5884,6.0467 -4.9091,4.4874 -9.7952,9.0001 -14.7501,13.4369 -4.3982,3.9387 -8.5452,7.6196 -12.7201,11.2159 17.8286,-3.0191 33.8918,-10.9902 49.3158,-20.1621 5.2615,-3.4839 10.5123,-6.9957 15.7428,-10.5374 z m 774.6581,20.3993 c -0.1423,0.1043 0.7768,1.4792 1.3374,1.5658 0.223,0.035 0.4471,0.062 0.6703,0.095 -0.5869,-0.6262 -1.207,-1.1802 -1.8774,-1.6195 -0.068,-0.044 -0.1099,-0.056 -0.1303,-0.041 z" /></clipPath></defs><g
     id="layer2"
     transform="matrix(0.84278431,0,0,0.84278431,-1246.7697,-206.17719)"
     style="display:inline"><g
       id="g6973"
       transform="matrix(2.3134283,0,0,2.4838344,-1897.008,-3570.0224)"
       style="display:inline"><path
         style="opacity:1;fill:#ffffff;fill-opacity:1;stroke:none;stroke-width:11.3665;stroke-opacity:1"
         d="m 1960.7081,587.62447 c -30.0312,1.19919 -61.4536,5.44664 -88.5589,17.9855 4.1669,12.31458 18.8507,21.60181 19.5009,36.81097 5.5387,34.46556 -33.3781,55.40619 -35.9182,88.67642 -0.6071,33.17894 12.5973,67.09691 1.9032,99.83072 6.2248,12.55218 25.2199,4.90398 36.4341,7.0123 36.7694,-0.0565 76.2179,-10.89131 98.9094,-41.89079 10.8192,-8.33977 -0.6577,9.13706 -4.0646,11.92377 -21.9682,13.41096 -3.1942,25.22138 13.3225,29.15645 69.4307,31.39791 99.0326,111.79018 100.3879,183.42149 3.9738,38.9485 -14.7768,74.9049 -38.1164,104.6189 -44.9979,66.9676 -95.3896,130.6236 -155.6418,184.594 -33.4856,32.3912 -61.2589,69.1673 -99.8425,95.7251 -36.226,31.5353 -71.2642,72.7171 -75.6484,122.4036 0.2117,7.7344 6.3638,12.7437 11.4127,17.2572 7.4337,1.0347 13.179,-1.7353 16.3056,6.3495 3.2655,3.8984 12.6963,-0.6422 10.1147,7.6125 -8.353,45.5303 -18.81,90.4635 -27.5216,135.8859 -4.1208,21.5032 -11.9781,45.9401 3.9031,64.8387 21.7388,36.1383 49.847,68.6062 74.481,102.2329 23.6849,-9.233 45.6291,-28.0599 68.7755,-40.7437 22.8705,-11.6817 38.5512,-34.7592 62.6077,-43.8914 6.9007,-3.4022 20.2464,6.1338 16.2704,11.5361 -8.2836,-10.3963 -22.5401,-7.7506 -30.3029,1.9853 -45.216,44.8073 -115.9971,61.6854 -145.8576,121.7223 -30.6576,62.0297 -7.0442,147.7442 57.3574,177.9285 48.9274,25.2234 107.2318,8.3165 157.3336,30.1486 50.3331,20.5727 105.4423,10.6701 158.1177,10.4157 49.9951,-1.4923 103.2819,-7.5577 143.0017,-41.1429 11.5165,-11.4782 24.706,-21.9821 42.0164,-19.8269 33.3097,-8.9253 67.8065,-7.3511 101.8865,-9.5743 18.8524,1.0213 36.145,-17.6327 28.0121,-36.0297 -29.5598,-38.102 -58.136,-77.9507 -89.3206,-114.7319 -53.5873,-67.3803 -54.9569,-157.8629 -84.6372,-236.0501 -21.3336,-57.881 -58.2242,-108.226 -83.1845,-164.4658 -18.3309,-40.5703 -66.898,-56.8304 -82.9025,-97.7749 -12.1998,-37.6596 13.4947,-72.8944 25.2567,-107.1499 32.9911,-81.1458 76.7635,-158.1479 102.1216,-242.2342 15.0638,-46.646 0.094,-94.74081 -12.4872,-139.91196 -20.96,-81.06093 -29.8855,-173.04714 -91.5769,-235.8155 -43.1525,-42.05742 -92.1121,-84.703 -153.665,-94.73858 -16.5274,-3.11317 -33.3748,-4.42356 -50.1856,-4.09989 z"
         id="path12748"
         transform="matrix(0.13570318,0,0,0.12639311,1338.3829,1472.9499)" /><path
         style="opacity:1;fill:#ffffff;fill-opacity:1;stroke:none;stroke-width:11.3665;stroke-opacity:1"
         d="m 1540.6449,624.33558 c -56.4566,4.13086 -105.6769,37.86787 -149.6756,70.86125 -86.5523,70.11372 -152.9247,171.75009 -165.0799,283.99109 -2.5109,65.30378 -6.1981,131.92488 7.3396,196.31358 12.7656,58.019 50.8509,105.795 70.4266,161.0179 8.6312,35.9822 12.8429,76.5009 -7.8239,109.6164 -39.7832,69.5737 -82.2689,138.6158 -109.9834,214.1312 -30.1025,91.7014 -33.3017,194.9352 -92.3981,275.0059 -17.8173,28.0298 -44.8715,50.8626 -57.122,82.0173 -3.5264,17.6125 9.5371,32.5665 26.4752,35.6507 35.8509,13.3178 73.8483,18.3621 111.0652,25.4777 68.2326,21.0541 136.5907,51.1418 209.6744,45.6417 80.2262,1.9353 160.7136,-39.4843 201.7517,-109.1871 15.489,-28.9887 38.2102,-59.2034 34.8988,-93.7426 -9.2536,-44.5123 -48.8104,-83.6888 -96.1396,-82.0061 -18.4833,-2.6002 -37.6755,6.6506 -54.4171,7.4267 35.6753,-20.5347 81.9625,-13.7523 116.1774,7.2894 14.544,-3.9521 22.0271,-22.9094 34.1409,-32.4599 17.829,-23.1167 46.417,-40.0693 55.7514,-68.7218 0.3085,-29.773 -3.4379,-59.4442 4.3637,-88.5452 6.3021,-26.9192 6.7388,-54.8398 -1.8379,-81.3127 -0.615,-7.6608 -5.9116,-25.5486 7.025,-23.7888 7.0803,-4.186 10.6181,-14.7065 20.7227,-9.7564 18.55,1.2308 15.1827,-21.9917 11.9414,-33.6038 -13.4623,-56.6675 -39.4939,-113.1263 -87.1551,-148.9649 -79.311,-65.052 -171.5952,-120.8559 -223.6206,-212.0845 -35.1307,-65.998 -34.8083,-154.2556 14.8742,-213.10938 21.2578,-30.06232 52.0505,-51.97866 74.0606,-81.08465 5.3093,-9.55633 -13.4158,-11.29634 -12.5287,-15.40692 33.2427,7.53607 68.7872,16.72294 102.0393,3.28932 14.5987,-2.95382 25.9323,-12.30625 32.208,-25.43743 16.3944,-20.41896 42.4167,-39.06087 38.1539,-68.7016 2.1823,-19.7547 -10.9203,-36.71556 -11.3892,-55.6188 11.8982,-17.07894 -4.7701,-39.18031 -17.5626,-50.90216 -24.2548,-18.40914 -56.8311,-22.22668 -86.3563,-23.2954 z"
         id="path12826"
         transform="matrix(0.13570318,0,0,0.12639311,1338.3829,1472.9499)" /><path
         style="opacity:1;fill:#ffffff;fill-opacity:1;stroke:none;stroke-width:5.68323;stroke-opacity:1"
         d="m 1743.8688,1831.4674 c -3.3193,10.9756 -13.8956,20.6332 -25.9843,17.3106 -8.0328,-1.4074 -1.9507,13.1732 -3.6019,18.6545 2.5747,45.8112 21.2948,92.0711 55.3192,123.4375 3.4929,-15.2944 1.2414,-32.6306 4.5816,-48.4793 2.5558,-15.9914 9.8712,-30.5982 16.705,-45.0871 -11.9728,-24.4555 -31.9324,-43.4963 -47.0196,-65.8362 z"
         id="path9875"
         transform="matrix(0.13570318,0,0,0.12639311,1338.3829,1472.9499)" /><path
         style="display:inline;fill:#ffa428;fill-opacity:1;fill-rule:nonzero;stroke:none;stroke-width:0.600001;stroke-dasharray:none;stroke-opacity:1"
         d="m 1589.7372,1550.5862 c -0.7219,-0.05 -1.4462,0.093 -1.9959,0.5898 -1.7867,1.0391 -3.7485,2.2699 -4.3788,4.3725 -0.8728,2.7034 0.046,5.5243 -0.025,8.2734 0.056,2.7996 0.036,5.6447 -1.0981,8.2584 -1.3815,3.3888 -2.5235,6.869 -3.8527,10.2782 -0.5574,1.7518 -1.2476,3.5282 -1.2712,5.3874 -0.077,0.4493 0.3555,0.5869 0.7013,0.385 1.6763,-0.3226 3.253,-1.1241 4.4226,-2.3801 2.0946,-1.9019 4.416,-3.6519 6.0175,-6.017 0.7472,-1.4024 1.37,-2.8747 1.9716,-4.3427 0.4067,-1.815 -0.2993,-3.6465 -0.6008,-5.4231 -0.3891,-1.7911 -0.6006,-3.6431 -0.3618,-5.4717 0.3296,-1.8959 1.4897,-3.4584 2.6585,-4.9194 0.934,-1.3012 2.1779,-2.566 2.4379,-4.2055 -0.029,-2.1232 -1.5277,-4.2962 -3.6492,-4.7662 -0.3241,-0.036 -0.651,-0.022 -0.9763,-0.019 z"
         id="path4550" /><path
         style="display:inline;fill:#ff1b1b;fill-opacity:1;fill-rule:nonzero;stroke:none;stroke-width:2.57313;stroke-dasharray:none;stroke-opacity:1"
         d="m 1604.6343,1578.4971 c -4.3978,0.9111 -8.8765,2.1057 -13.3991,1.3584 -1.9554,-0.3408 -2.6426,2.3956 -4.1128,3.3482 -2.7803,2.8598 -5.9499,5.4432 -9.7436,6.7748 -1.2577,0.5651 -2.3249,2.8661 -3.8219,1.3741 -3.3839,-2.6967 -6.1285,-6.7957 -10.8056,-7.2444 -2.2779,-0.4865 -4.9613,-1.1982 -5.9102,-3.5732 -1.4618,-0.7449 -3.1431,0.7881 -4.6958,0.7812 -2.869,0.8014 -6.0533,-0.088 -8.8259,0.5785 -6.8033,5.5532 -14.4569,11.7794 -16.2892,20.8497 -1.5209,9.1316 3.462,17.992 9.9663,24.0416 7.7574,7.7348 17.4177,13.1505 25.8889,19.953 4.8184,4.1723 7.2286,10.301 9.5332,16.0619 0.8909,0.9143 0.7453,-0.9991 1.0924,-1.4043 2.6417,-6.9317 9.3053,-11.0172 14.5512,-15.8223 10.7993,-9.2266 20.5567,-19.6313 29.7907,-30.401 4.9689,-5.8376 5.9919,-14.2192 3.4572,-21.3308 -2.3853,-7.3851 -8.4092,-14.8987 -16.6758,-15.3454 z"
         id="path5442" /><path
         style="display:inline;fill:#ffffff;fill-opacity:1;fill-rule:nonzero;stroke:none;stroke-width:0.230548;stroke-opacity:1"
         d="m 1566.8698,1703.3402 c -1.9981,1.4436 -3.3321,3.6795 -4.8614,5.5946 -1.016,1.595 -2.3805,3.0574 -3.16,4.7575 0.2025,1.4969 0.8927,2.969 0.3755,4.5038 -0.2813,2.2016 -1.5403,4.118 -2.2569,6.1455 0.6906,0.5035 1.687,-0.3723 2.4018,-0.5333 4.8088,-2.0576 9.1359,-6.368 9.6343,-11.7824 0.2442,-2.2403 0.4045,-4.5275 0.4171,-6.7607 -0.8366,-0.6076 -1.54,-1.6082 -2.5504,-1.925 z"
         id="path3896" /><path
         style="display:inline;fill:#ffa428;fill-opacity:1;fill-rule:nonzero;stroke:none;stroke-width:0.230548;stroke-opacity:1"
         d="m 1568.9474,1669.9252 c -0.6707,0.4804 -0.687,1.7334 -1.7696,1.7499 -0.7304,0.6575 0.2353,1.7872 0.2774,2.5612 1.2811,4.6745 -0.4528,9.4626 -0.8628,14.1638 -0.2527,2.3006 0.4635,4.6346 0.1283,6.8867 -1.3014,2.4825 -3.6543,4.2194 -5.4907,6.2902 -2.0178,2.1406 -4.3576,4.0865 -6.119,6.4178 0.7564,1.4266 1.9471,2.6132 2.7647,4.0049 0.6799,0.1655 0.9364,-1.0228 1.3956,-1.381 2.1249,-2.9991 4.1977,-6.1208 6.9104,-8.6226 1.3372,-0.6792 2.2327,1.0929 3.3804,1.3252 0.6632,-0.7049 0.261,-2.0145 0.5178,-2.9188 0.6888,-6.9541 -0.097,-13.9533 -0.036,-20.8983 0.128,-3.0505 1.0038,-6.0893 0.9681,-9.1471 -0.4309,-0.6058 -1.3863,0.1767 -1.9178,-0.4238 -0.048,-0.013 -0.098,-0.017 -0.1468,-0.01 z"
         id="path3823" /><path
         style="display:inline;fill:#ffa428;fill-opacity:1;fill-rule:nonzero;stroke:none;stroke-width:0.230548;stroke-opacity:1"
         d="m 1565.41,1559.8406 c -1.1523,0.1646 -2.6412,0.7767 -3.0354,1.9619 0.2807,1.5313 1.4005,2.8636 1.4922,4.448 0.545,2.9976 -0.084,6.3813 -2.5315,8.4384 -1.2852,1.4438 -3.5521,2.6834 -3.4569,4.8748 0.3203,2.2125 2.7298,2.8477 4.5826,3.1894 2.8842,0.4619 5.6481,1.6124 7.6265,3.8189 1.4793,1.2839 2.6719,3.0722 4.4804,3.895 1.1045,-0.1577 0.9593,-1.7942 0.5467,-2.5379 -1.6739,-4.5786 -4.0306,-8.8547 -5.929,-13.3321 -1.7583,-4.1936 -0.8275,-8.859 -1.8804,-13.1835 -0.2894,-0.8151 -0.9389,-1.6446 -1.8952,-1.5729 z"
         id="path3752" /><path
         d="m 1560.976,1561.4494 c -0.027,0.2397 -0.025,0.5297 0.048,0.866 0.053,0.2434 0.1382,0.4859 0.2542,0.7384 0.197,0.4287 0.4104,0.7461 0.6331,1.1449 0.2039,0.4008 0.3736,0.8485 0.5064,1.3506 0.025,0.093 0.048,0.1895 0.071,0.2886 0.1208,0.5309 0.2037,1.1213 0.2476,1.7944 0.038,0.7899 0,1.6594 -0.1723,2.5156 -0.1596,0.7717 -0.438,1.5404 -0.896,2.2301 -0.2713,0.3868 -0.5936,0.7464 -0.9623,1.1058 -0.3634,0.3541 -0.7487,0.6861 -1.1705,1.0502 -0.3986,0.3441 -0.831,0.7179 -1.2368,1.1188 -0.3999,0.395 -0.7942,0.8355 -1.1387,1.3423 -0.3389,0.4854 -0.5752,1.0654 -0.667,1.6801 -0.089,0.5951 -0.043,1.2313 0.1851,1.8395 0.1273,0.3471 0.2885,0.707 0.4918,1.0533 0.2002,0.3409 0.4443,0.6737 0.743,0.972 0.014,0.014 0.03,0.028 0.045,0.041 0.5276,0.4488 1.1238,0.7399 1.7116,0.9516 0.5787,0.2084 1.1807,0.3498 1.7095,0.4781 0.6842,0.1626 1.3977,0.2812 2.0332,0.4032 0.6613,0.1269 1.2733,0.2631 1.8543,0.4675 0.7863,0.2851 1.5188,0.7129 2.2027,1.2281 0.6983,0.5262 1.343,1.1413 1.9449,1.7842 0.6181,0.653 1.2184,1.3076 1.8617,1.9433 0.021,0.021 0.043,0.043 0.065,0.064 0.6491,0.6372 1.3789,1.2893 2.2093,1.8577 0.112,0.075 0.2396,0.1526 0.3828,0.221 0.1387,0.066 0.3083,0.1317 0.4982,0.1687 0.187,0.036 0.4146,0.049 0.6569,-0.011 0.1203,-0.03 0.2402,-0.077 0.3558,-0.1434 0.086,-0.05 0.166,-0.1083 0.2398,-0.1751 0.4407,-0.3119 0.7789,-0.7375 0.9962,-1.2166 0.2209,-0.4871 0.3208,-1.0387 0.2685,-1.5923 -0.033,-0.4194 -0.1153,-0.8178 -0.2285,-1.197 -0.113,-0.3786 -0.2567,-0.7391 -0.411,-1.082 -0.3059,-0.6797 -0.6552,-1.3013 -0.9323,-1.89 -0.2957,-0.6768 -0.5264,-1.3727 -0.7961,-2.1279 -0.2641,-0.7396 -0.5584,-1.513 -0.9651,-2.2553 -0.7759,-1.5572 -1.5449,-2.9953 -2.245,-4.5215 -0.7022,-1.5311 -1.2847,-3.0486 -1.6375,-4.6238 -0.2429,-1.0285 -0.2939,-2.0816 -0.2932,-3.1673 7e-4,-1.116 0.056,-2.2579 0.011,-3.4057 -0.037,-0.8096 -0.1302,-1.6091 -0.3042,-2.3849 -0.1834,-0.8176 -0.4539,-1.5963 -0.832,-2.3192 -0,-0 -0,-0.01 -0.01,-0.01 -0.3054,-0.5655 -0.7572,-1.0178 -1.263,-1.3214 -0.2718,-0.1632 -0.562,-0.2855 -0.8613,-0.3628 -0.3166,-0.082 -0.6406,-0.1124 -0.9624,-0.09 -0.3588,0.022 -0.7175,0.088 -1.0483,0.207 -0.4193,0.1505 -0.7612,0.3726 -1.0249,0.6488 a 0.81852581,0.81852581 90 0 0 1.1842,1.1304 c 0.076,-0.08 0.1941,-0.1663 0.3929,-0.2373 0.1625,-0.058 0.3651,-0.099 0.601,-0.1131 0.1492,-0.01 0.2969,0 0.4468,0.042 0.1423,0.037 0.2865,0.097 0.4267,0.1814 0.263,0.1583 0.5011,0.397 0.6601,0.6902 0.3007,0.5771 0.5249,1.2161 0.6807,1.913 0.1485,0.6642 0.2316,1.366 0.2644,2.0952 0.041,1.0473 -0.012,2.1649 -0.014,3.3346 -0,1.1259 0.049,2.3308 0.3338,3.5381 0.3849,1.7205 1.0166,3.3539 1.7447,4.9421 0.7156,1.5611 1.5248,3.0788 2.2745,4.5845 0,0.01 0.01,0.02 0.016,0.03 0.3433,0.6245 0.6035,1.2985 0.8645,2.0299 0.2538,0.7109 0.5146,1.4959 0.8428,2.2452 0,0.01 0.01,0.013 0.01,0.02 0.313,0.6665 0.659,1.2825 0.926,1.8756 0.1347,0.2993 0.2488,0.5888 0.3348,0.8768 0.086,0.2886 0.1434,0.5721 0.1652,0.8577 4e-4,0.01 10e-4,0.012 0,0.018 0.025,0.2586 -0.021,0.5242 -0.1274,0.7602 -0.1087,0.2407 -0.2739,0.4376 -0.4733,0.5714 -0.049,0.033 -0.094,0.071 -0.1355,0.1134 0.01,-0.01 0.027,-0.024 0.051,-0.038 0.024,-0.014 0.049,-0.023 0.072,-0.029 0.045,-0.011 0.066,-0 0.053,-0.01 -0.016,-0 -0.052,-0.013 -0.1057,-0.038 -0.053,-0.025 -0.111,-0.058 -0.169,-0.097 -0.7142,-0.4873 -1.3685,-1.0661 -1.9825,-1.6666 -0.02,-0.02 -0.041,-0.04 -0.061,-0.06 -0.6191,-0.6094 -1.1847,-1.2242 -1.8252,-1.8973 -0.64,-0.6803 -1.3571,-1.3645 -2.1563,-1.9628 -0.7844,-0.5874 -1.6593,-1.1007 -2.6378,-1.4516 -0.7059,-0.2447 -1.4138,-0.3953 -2.0954,-0.5226 -0.6916,-0.1291 -1.327,-0.2298 -1.9642,-0.3776 -0.5503,-0.1295 -1.0624,-0.2475 -1.5454,-0.4176 -0.4661,-0.1642 -0.8728,-0.3675 -1.2083,-0.6432 -0.1811,-0.181 -0.3416,-0.3924 -0.4834,-0.6273 -0.1507,-0.2494 -0.2777,-0.5208 -0.3846,-0.8012 -0.1316,-0.3413 -0.166,-0.7105 -0.1151,-1.0744 0.053,-0.3769 0.1953,-0.737 0.4042,-1.0422 0.2752,-0.4083 0.5968,-0.7743 0.9504,-1.1264 0.3626,-0.3611 0.7558,-0.7044 1.1583,-1.0546 0.4131,-0.3594 0.8328,-0.7233 1.233,-1.1163 0.4136,-0.4061 0.8036,-0.8406 1.1433,-1.33 0,-0 0.01,-0.01 0.01,-0.014 0.5871,-0.8892 0.9234,-1.8517 1.1089,-2.7677 0.2051,-1.0126 0.2352,-2.0139 0.19,-2.8908 -2e-4,-0 -5e-4,-0.01 -8e-4,-0.013 -0.052,-0.7403 -0.1467,-1.4107 -0.2899,-2.0309 -0.027,-0.1153 -0.055,-0.2279 -0.084,-0.3378 -0.1597,-0.597 -0.3677,-1.1464 -0.6262,-1.6509 -0,-0.01 -0.01,-0.015 -0.012,-0.023 -0.2907,-0.5205 -0.4202,-0.6887 -0.5874,-1.0543 -0.08,-0.1755 -0.1268,-0.3177 -0.1533,-0.4403 -0.035,-0.1643 -0.034,-0.2926 -0.023,-0.3909 a 0.73196595,0.73196595 90 0 0 -1.4548,-0.164 z"
         id="path-1"
         style="display:inline;fill:#000000;fill-rule:nonzero;stroke:none;stroke-width:1;stroke-dasharray:none;stroke-opacity:1" /><path
         d="m 1563.5745,1559.1257 c -0.3784,0.1475 -0.9219,0.4148 -1.5495,0.9358 -0.1344,0.1129 -0.2626,0.2278 -0.3858,0.3495 -0.1175,0.1161 -0.2562,0.2638 -0.3925,0.439 -0,0 -0.01,0.01 -0.01,0.012 -0.026,0.035 -0.075,0.1002 -0.12,0.1708 -0.047,0.074 -0.1,0.1692 -0.1393,0.2834 -0,0.01 -0.01,0.019 -0.01,0.028 -0.019,0.064 -0.033,0.1326 -0.036,0.2091 a 0.68541275,0.68541275 90 0 0 1.3696,0.059 c -0,0.042 -0.016,0.1124 -0.021,0.1271 -0,0.01 -0.01,0.019 -0.01,0.028 -0.01,0.015 -0.01,0.017 0,6e-4 0.012,-0.019 0.028,-0.041 0.058,-0.082 0.089,-0.1132 0.1826,-0.214 0.2696,-0.3 0.092,-0.091 0.1919,-0.1807 0.3011,-0.2726 0.4965,-0.412 0.9081,-0.6091 1.1685,-0.7106 a 0.68541275,0.68541275 90 0 0 -0.4978,-1.2772 z"
         id="path-1-0"
         style="display:inline;fill:#000000;fill-rule:nonzero;stroke:none;stroke-opacity:1" /><path
         d="m 1539.5341,1580.5017 c 0.1936,0.061 0.9262,0.2903 1.7582,0.5183 0.954,0.2614 3.8712,1.064 6.9548,1.0185 2.4563,-0.024 4.9056,-0.5943 7.2759,-1.5005 0.925,-0.3505 1.708,-0.6979 2.0772,-0.8639 a 0.70359759,0.70359759 90 0 0 -0.5772,-1.2834 c -0.3595,0.1617 -1.1127,0.4957 -2.0006,0.8322 -2.2583,0.8633 -4.5397,1.3869 -6.7925,1.4085 -2.8668,0.042 -5.6111,-0.707 -6.5658,-0.9686 -0.8059,-0.2208 -1.5181,-0.4441 -1.7096,-0.5041 a 0.70359759,0.70359759 90 0 0 -0.4204,1.343 z"
         id="path-1-8"
         style="display:inline;fill:#000000;fill-rule:nonzero;stroke:none;stroke-opacity:1" /><path
         d="m 1563.3662,1560.0981 c -0.085,-0.6025 -0.3298,-2.0302 -1.1292,-3.4999 -0.3748,-0.6891 -0.9202,-1.4774 -1.7072,-2.1773 -0.2262,-0.2012 -0.4895,-0.4103 -0.7929,-0.6124 -1.4266,-0.9873 -3.1744,-1.7643 -5.432,-2.2848 -1.7885,-0.4123 -3.6354,-0.6108 -5.7195,-0.7656 -0.01,-6e-4 -0.015,-0 -0.023,-0 -2.5398,-0.1126 -5.0828,0.3387 -7.6847,1.2259 -2.3718,0.8087 -4.6639,1.9324 -6.9746,3.1901 -4.5134,2.343 -8.9965,5.409 -13.0542,9.2994 -7.2026,6.8875 -13.2297,15.7761 -16.042,25.9857 -0.7185,2.5311 -1.1056,5.1223 -1.3288,7.7347 -0.2213,2.5899 -0.2807,5.1939 -0.3466,7.76 -0.056,4.1068 0.166,8.2757 0.8888,12.3442 0.7287,4.1018 1.9626,8.0804 3.9148,11.7736 1.4286,2.842 3.0834,5.6052 4.6225,8.169 0.2325,0.4374 0.4401,0.9246 0.6753,1.4164 0.251,0.5246 0.5334,1.0521 0.9177,1.5334 0.063,0.079 0.1312,0.1557 0.2191,0.2047 0.088,0.049 0.1893,0.067 0.2892,0.079 0.023,0 0.044,0.01 0.063,0.01 0.078,0.01 0.157,0.018 0.2357,0.013 0.079,-0.01 0.1566,-0.025 0.2266,-0.061 0.07,-0.036 0.1311,-0.089 0.1808,-0.1497 0.05,-0.061 0.088,-0.1304 0.1258,-0.1997 0.016,-0.03 0.029,-0.054 0.038,-0.071 a 0.76906303,0.76906303 90 0 0 -1.3524,-0.7328 c -0.01,0.017 -0.022,0.041 -0.038,0.071 l 0.7689,-0.3971 c -0.019,-0 -0.04,-0 -0.063,-0.01 l 0.5083,0.2836 c -0.2754,-0.3448 -0.4982,-0.7485 -0.7321,-1.2374 -0.1995,-0.417 -0.4554,-1.0082 -0.7153,-1.4943 -0.01,-0.011 -0.012,-0.022 -0.019,-0.033 -1.5461,-2.5754 -3.1752,-5.2963 -4.5806,-8.092 -0,-0 -0,-0.01 -0.01,-0.014 -1.8657,-3.5277 -3.0568,-7.3509 -3.7638,-11.3306 -0.7012,-3.9467 -0.9205,-8.0138 -0.8654,-12.0449 0.066,-2.5688 0.1247,-5.124 0.3413,-7.6593 0.2179,-2.5505 0.5926,-5.0383 1.2775,-7.4514 2.7262,-9.8967 8.5806,-18.5531 15.6246,-25.289 3.9437,-3.7811 8.3062,-6.7655 12.7056,-9.0486 0,-0 0.01,-0 0.014,-0.01 2.2816,-1.2421 4.4882,-2.3203 6.7423,-3.0889 2.4587,-0.8383 4.8044,-1.2461 7.1088,-1.1456 2.0562,0.153 3.8068,0.3448 5.4763,0.7297 2.0973,0.4836 3.6613,1.1909 4.9076,2.0544 0,0 0.01,0.01 0.012,0.01 0.2398,0.1594 0.4485,0.3249 0.6285,0.4849 0.623,0.5541 1.0657,1.1884 1.3782,1.7629 0.6702,1.2322 0.882,2.448 0.9574,2.9806 a 0.76906303,0.76906303 90 0 0 1.523,-0.2156 z"
         id="path-1-09"
         style="display:inline;fill:#000000;fill-rule:nonzero;stroke:none;stroke-opacity:1" /><path
         d="m 1542.7102,1580.6442 c -0.7928,0.6407 -4.7081,3.7499 -7.4553,6.3449 -0.6121,0.5781 -1.2353,1.1904 -1.8552,1.835 -1.417,1.4735 -3.0769,3.3829 -4.554,5.6884 -2.2195,3.4184 -3.9746,8.3322 -3.4326,13.6222 0.3169,3.2607 1.2541,6.4728 2.7229,9.4918 1.4523,2.9851 3.393,5.7167 5.6689,8.0694 2.88,3.0856 5.9721,5.8466 9.1036,8.3595 4.2643,3.4221 8.7962,6.5503 14.0603,10.0236 1.6485,1.1095 3.3345,2.3463 4.8758,3.747 1.4988,1.3621 2.8481,2.8669 3.9356,4.5754 2.3022,3.553 3.9556,7.2231 5.0179,10.8135 0.3007,1.1212 0.5,2.1018 0.5829,3.0347 0.1139,1.2823 -0.02,2.2215 -0.2126,2.9216 a 0.85125853,0.85125853 90 0 0 1.6416,0.4512 c 0.246,-0.8948 0.4004,-2.0366 0.2712,-3.5221 -0.093,-1.0697 -0.3166,-2.1581 -0.6315,-3.3392 -0,-0.01 -0,-0.014 -0.01,-0.021 -1.1054,-3.753 -2.8263,-7.5791 -5.2152,-11.2686 -1.1837,-1.8608 -2.642,-3.4805 -4.2265,-4.9196 -1.6272,-1.478 -3.389,-2.7659 -5.0816,-3.9023 -5.2596,-3.4666 -9.7394,-6.555 -13.9473,-9.9227 -3.0893,-2.4724 -6.1249,-5.1748 -8.9452,-8.184 -0,-0 -0.01,-0.01 -0.011,-0.011 -2.1673,-2.2245 -4.0174,-4.8073 -5.4042,-7.6273 -1.4009,-2.8486 -2.2955,-5.8703 -2.6078,-8.9328 -0.5379,-4.9273 1.0478,-9.4246 3.1116,-12.6433 1.3997,-2.2041 2.9823,-4.0402 4.3559,-5.4742 0.5995,-0.6259 1.2045,-1.222 1.8013,-1.7868 2.6972,-2.5525 6.5442,-5.598 7.371,-6.2663 a 0.74360425,0.74360425 90 0 0 -0.9348,-1.1566 z"
         id="path-1-1"
         style="display:inline;fill:#000000;fill-rule:nonzero;stroke:none;stroke-opacity:1" /><path
         d="m 1514.0142,1640.5332 c 0.092,0.4063 0.887,3.6501 1.1497,5.6582 0.1011,0.773 0.1742,1.6232 0.1684,2.5044 -6e-4,0.092 -0,0.1854 -0,0.2803 -0.021,0.7986 -0.1113,1.7283 -0.3654,2.7167 -0.4096,1.4593 -1.098,2.9061 -2.1386,4.5771 -0.8526,1.3692 -1.9051,2.8072 -2.9477,4.3755 -2.1333,3.1952 -3.9302,6.3853 -6.0469,10.0839 -0,0 -0,0.01 -0.01,0.01 -2.4107,4.3615 -4.7878,8.9389 -6.4945,13.7972 -0,0.013 -0.01,0.025 -0.012,0.038 -0.4149,1.3945 -0.7341,2.8134 -1.0355,4.1696 -0.3189,1.4351 -0.609,2.7571 -0.9829,4.0773 -0,0.01 -0,0.016 -0.01,0.024 -0.9466,3.7939 -1.6389,6.9816 -2.6593,10.4266 -1.0909,3.6831 -2.3494,6.8742 -4.0398,9.7542 -0.2902,0.4895 -0.5942,0.9638 -0.9038,1.4202 -1.2076,1.7801 -2.5959,3.4288 -4.0753,5.1425 -1.8193,2.1075 -3.7206,4.2497 -5.3137,6.6318 -0.01,0.015 -0.019,0.029 -0.028,0.044 -0.6348,1.0909 -1.1115,2.2451 -1.4851,3.2296 -0.028,0.075 -0.056,0.1508 -0.071,0.2296 -0.015,0.079 -0.017,0.1606 -10e-4,0.2393 0.016,0.079 0.049,0.1535 0.093,0.2204 0.044,0.067 0.099,0.126 0.1547,0.1841 0.077,0.081 0.168,0.1492 0.2719,0.2008 0.1052,0.052 0.2109,0.081 0.3094,0.093 0.1948,0.025 0.3584,-0.013 0.4595,-0.045 0.1098,-0.035 0.2024,-0.081 0.2669,-0.1168 0.071,-0.039 0.1348,-0.08 0.1836,-0.1126 0.1148,-0.077 0.193,-0.1329 0.2311,-0.1569 0.025,-0.015 0.027,-0.016 0.014,-0.01 -0.01,0 -0.026,0.011 -0.052,0.019 -0.029,0.01 -0.071,0.018 -0.1238,0.022 a 0.83307368,0.83307368 90 0 0 -0.1304,-1.661 c -0.081,0.01 -0.1546,0.022 -0.2187,0.041 -0.057,0.017 -0.1093,0.037 -0.1555,0.058 -0.081,0.036 -0.1536,0.078 -0.2152,0.1158 -0.1075,0.067 -0.2022,0.1353 -0.2713,0.1806 -0.032,0.021 -0.054,0.034 -0.066,0.041 -0.01,0 -0.01,0 0.034,-0.013 0.029,-0.01 0.1239,-0.036 0.2556,-0.02 0.068,0.01 0.1443,0.029 0.2219,0.067 0.077,0.038 0.1427,0.088 0.196,0.1441 0.055,0.058 0.1105,0.1171 0.1549,0.1841 0.044,0.067 0.077,0.1416 0.093,0.2204 0.016,0.079 0.014,0.1604 -9e-4,0.2393 -0.015,0.079 -0.043,0.1546 -0.072,0.2296 0.3622,-0.9495 0.7979,-1.9939 1.3567,-2.9603 1.5194,-2.2683 3.3335,-4.3156 5.1726,-6.4485 1.4799,-1.7163 2.9238,-3.4304 4.1891,-5.2995 0.3258,-0.4813 0.6476,-0.9846 0.9584,-1.51 1.7792,-3.0376 3.0806,-6.3659 4.1905,-10.1308 1.0282,-3.4877 1.7357,-6.7563 2.6608,-10.4889 0.3821,-1.3711 0.6762,-2.7391 0.9855,-4.159 0.2954,-1.356 0.5963,-2.7176 0.9845,-4.0465 1.6413,-4.7094 3.952,-9.1957 6.3427,-13.5477 2.1115,-3.7183 3.8686,-6.8612 5.9556,-10.009 1.0092,-1.5299 2.0711,-2.9905 2.9576,-4.4246 1.0852,-1.7555 1.8413,-3.338 2.296,-4.9777 0,-0 0,-0.01 0,-0.015 0.2879,-1.1274 0.3866,-2.1764 0.4079,-3.0586 0,-0.1048 0,-0.2077 0,-0.3088 0,-0.9669 -0.076,-1.8872 -0.1834,-2.7055 -0.275,-2.0953 -1.0977,-5.4684 -1.1714,-5.7936 a 0.74214946,0.74214946 90 0 0 -1.4476,0.328 z"
         id="path-1-9"
         style="display:inline;fill:#000000;fill-rule:nonzero;stroke:none;stroke-opacity:1" /><path
         d="m 1538.2006,1707.0785 c 1.2991,-0.5443 3.9514,-1.4656 7.2772,-1.3186 1.9416,0.086 4.0118,0.5386 5.9424,1.5623 0.3384,0.1794 0.676,0.3783 1.0102,0.5985 0.9568,0.616 1.8764,1.433 2.715,2.4873 0.7282,0.9155 1.3781,1.9894 1.9124,3.2018 0.01,0.014 0.013,0.028 0.02,0.041 0.3134,0.617 0.613,1.2819 0.7851,1.9539 0.081,0.3174 0.1341,0.6357 0.1475,0.952 0.013,0.3057 -0.01,0.612 -0.082,0.9184 -0,0.015 -0.01,0.03 -0.01,0.045 -0.2261,1.3379 -0.6951,2.635 -1.3222,3.9661 -0.6095,1.2935 -1.3114,2.5079 -2.0543,3.8462 -0.1549,0.2697 -0.3138,0.538 -0.4766,0.8047 -1.1447,1.8754 -2.5751,3.8185 -4.3317,5.6341 -1.7581,1.8173 -3.8597,3.5233 -6.3222,4.8711 -3.8371,2.0975 -8.3363,3.6605 -13.2432,4.2817 -3.8661,0.4718 -7.8079,0.3366 -11.8104,-0.2365 -3.8966,-0.5578 -7.7812,-1.52 -11.6392,-2.6868 -3.0797,-0.9178 -6.0691,-2.0023 -9.1699,-3.0686 -0.023,-0.01 -0.045,-0.015 -0.068,-0.02 -1.0911,-0.2752 -2.198,-0.3237 -3.1943,-0.3671 -1.0497,-0.046 -1.9734,-0.086 -2.8714,-0.2984 -0.011,-0 -0.021,-0 -0.032,-0.01 -3.6376,-0.7156 -6.9053,-1.4611 -9.9928,-2.7102 -0,-0 -0.01,-0 -0.015,-0.01 -0.4451,-0.1698 -0.8273,-0.3844 -1.1147,-0.6354 -0.1509,-0.1317 -0.2702,-0.2686 -0.3611,-0.4093 -0.095,-0.1476 -0.1621,-0.3031 -0.2013,-0.4693 -0.01,-0.023 -0.011,-0.045 -0.019,-0.067 -0.1298,-0.3973 -0.2867,-1.1684 -0.3506,-1.4324 a 0.83743805,0.83743805 90 0 0 -1.6278,0.394 c 0.018,0.074 0.2229,1.0491 0.3694,1.5212 0.085,0.346 0.2251,0.6684 0.4153,0.9644 0.1849,0.2876 0.4112,0.5418 0.6657,0.7651 0.4736,0.4156 1.0407,0.7209 1.6119,0.9413 3.2333,1.3107 6.6289,2.0826 10.2762,2.8026 1.076,0.2536 2.1583,0.2966 3.1719,0.3416 1.0075,0.045 1.9325,0.091 2.8189,0.3109 3.053,1.0518 6.0893,2.153 9.1988,3.0801 3.9065,1.1816 7.8791,2.1679 11.8875,2.7416 4.1195,0.5896 8.2147,0.734 12.2616,0.2394 5.1332,-0.6512 9.8349,-2.287 13.8464,-4.4842 2.6334,-1.4438 4.8662,-3.2632 6.7211,-5.185 1.8533,-1.9202 3.3544,-3.9674 4.55,-5.934 0.1711,-0.2815 0.3379,-0.5645 0.5005,-0.8489 0,-0 0,-0.01 0.01,-0.011 0.7206,-1.3095 1.4574,-2.5983 2.0907,-3.9621 0.6565,-1.4139 1.1759,-2.8565 1.4251,-4.3839 0.097,-0.4571 0.1213,-0.9026 0.097,-1.3287 -0.026,-0.4475 -0.1065,-0.8759 -0.2162,-1.2775 -0.227,-0.8305 -0.5969,-1.605 -0.9349,-2.2451 -0.5954,-1.3116 -1.3192,-2.4839 -2.1362,-3.4932 -0.948,-1.1712 -1.995,-2.0912 -3.0879,-2.7873 -0.368,-0.2412 -0.7467,-0.4631 -1.1255,-0.6631 -2.1602,-1.14 -4.4522,-1.6341 -6.5721,-1.7281 -3.6255,-0.1608 -6.5074,0.8366 -7.9176,1.4275 a 0.74360425,0.74360425 90 0 0 0.5748,1.3716 z"
         id="path-1-6"
         style="display:inline;fill:#000000;fill-rule:nonzero;stroke:none;stroke-opacity:1" /><path
         d="m 1556.0065,1726.2705 c 2.4563,-0.4708 7.0662,-1.9102 10.7513,-6.1182 0.153,-0.1748 0.3062,-0.3565 0.4586,-0.5454 1.4644,-1.8152 2.891,-4.3728 3.3019,-7.4485 0,-0.011 0,-0.022 0,-0.033 0.2057,-2.2066 0.2594,-4.3565 0.4391,-5.9431 l -0.01,0.055 c 0,-0.01 0,-0.014 0,-0.02 0.029,-0.1484 0.039,-0.2587 0.049,-0.3171 0,-0.02 0.01,-0.036 0.01,-0.056 8e-4,-0 -0,0.01 -0.012,0.019 a 0.83307368,0.83307368 90 0 0 -1.4352,-0.8462 c -0.049,0.083 -0.1016,0.1887 -0.1457,0.3254 -0.03,0.093 -0.051,0.1845 -0.066,0.272 -0.021,0.1214 -0.039,0.2891 -0.043,0.3241 -3e-4,0 -6e-4,0.01 -9e-4,0.01 -10e-4,0.01 -0,0.018 -0,0.028 -0,0.01 -0,0.018 -0,0.027 -0.1765,1.678 -0.1949,3.8624 -0.3549,5.9795 -0.3315,2.7148 -1.5694,5.0282 -2.8948,6.694 -0.138,0.1724 -0.2777,0.3394 -0.4174,0.5001 -1.5599,1.7935 -3.4391,3.1571 -5.3724,4.111 -1.9023,0.9386 -3.5672,1.3387 -4.5391,1.525 a 0.74287686,0.74287686 90 0 0 0.2796,1.4592 z"
         id="path-1-80"
         style="display:inline;fill:#000000;fill-rule:nonzero;stroke:none;stroke-opacity:1" /><path
         d="m 1554.9232,1708.4687 c 0.479,-0.7143 1.139,-1.5635 2.2062,-2.6715 0.7934,-0.8237 1.4722,-1.4539 2.563,-2.4965 0.9597,-0.9119 2.0574,-1.9046 3.2294,-3.0559 0.6368,-0.6255 1.3139,-1.3197 1.9696,-2.0683 0.3456,-0.3945 0.7091,-0.8312 1.0715,-1.3055 0.01,-0.01 0.012,-0.016 0.017,-0.023 0.126,-0.178 0.3867,-0.5332 0.5708,-0.8157 0.1747,-0.2681 0.3759,-0.6086 0.5244,-0.9997 0.03,-0.079 0.047,-0.1631 0.051,-0.248 0.026,-0.6139 -0.027,-1.217 -0.1104,-1.8381 -0.075,-0.5621 -0.1734,-1.124 -0.2397,-1.6792 -8e-4,-0.01 -0,-0.012 -0,-0.018 -0.067,-0.469 -0.1422,-0.9416 -0.1821,-1.399 -0.038,-0.4338 -0.045,-0.8574 0.014,-1.2706 0,-0.014 0,-0.029 0,-0.043 0.1594,-1.8477 0.5742,-3.5864 0.9659,-5.5907 0.3605,-1.8441 0.6825,-3.8437 0.537,-5.9091 -0.027,-0.7158 -0.1568,-1.4038 -0.3278,-2.0723 -0.1657,-0.6478 -0.3712,-1.2794 -0.5583,-1.8933 -0.132,-0.4705 -0.245,-0.9324 -0.2905,-1.38 -0.022,-0.2195 -0.028,-0.4308 -0.012,-0.6335 0.015,-0.2 0.051,-0.3915 0.1106,-0.575 l -0.8008,0.5457 c -0.072,-0 -0.1301,-0.025 -0.1689,-0.046 -0.036,-0.019 -0.046,-0.031 -0.041,-0.026 0.01,0.01 0.025,0.025 0.055,0.062 0.029,0.035 0.066,0.082 0.1113,0.1392 0.043,0.054 0.1011,0.1245 0.1676,0.1941 0.067,0.07 0.1535,0.1511 0.262,0.2247 0.1101,0.075 0.2478,0.1448 0.4135,0.1843 0.1679,0.04 0.3418,0.043 0.5149,0.01 0.067,-0.013 0.1349,-0.029 0.1967,-0.059 0.062,-0.03 0.1158,-0.073 0.1679,-0.118 0.1929,-0.1657 0.3441,-0.3501 0.4668,-0.5342 0.1207,-0.1811 0.2164,-0.366 0.2964,-0.535 0.08,-0.1697 0.148,-0.3291 0.2123,-0.4715 0.065,-0.1443 0.1228,-0.2637 0.1839,-0.3678 0.043,-0.074 0.075,-0.1548 0.092,-0.2388 -0.01,0.024 -0.018,0.046 -0.035,0.064 -0.014,0.014 -0.043,0.036 -0.093,0.047 -0.027,0.01 -0.063,0.01 -0.1056,0 -0.044,-0.01 -0.091,-0.02 -0.1374,-0.046 -0.046,-0.026 -0.081,-0.059 -0.1039,-0.089 -0.022,-0.029 -0.029,-0.049 -0.029,-0.05 -0.012,-0.035 -0.021,-0.071 -0.027,-0.1077 0.052,0.2909 0.1803,0.5644 0.3987,0.7774 0.1068,0.1042 0.2279,0.1864 0.3569,0.2467 0.1283,0.06 0.2609,0.096 0.3916,0.1139 0.2591,0.034 0.5135,-0.01 0.7381,-0.091 0.1891,-0.072 0.3671,-0.1812 0.5225,-0.3213 0.033,-0.021 0.063,-0.042 0.09,-0.062 0.058,-0.042 0.1141,-0.086 0.1655,-0.1291 0.1014,-0.084 0.204,-0.1769 0.287,-0.2523 0.043,-0.039 0.081,-0.074 0.1159,-0.1048 0.035,-0.031 0.061,-0.054 0.08,-0.07 0.01,-0.01 0.015,-0.012 0.015,-0.012 7e-4,-5e-4 -0,0 -0.02,0.014 -0.01,0.01 -0.052,0.032 -0.1143,0.056 -0.032,0.012 -0.087,0.03 -0.159,0.04 -0.07,0.01 -0.1849,0.016 -0.3201,-0.023 -0.061,-0.018 -0.123,-0.036 -0.1813,-0.062 -0.058,-0.027 -0.1128,-0.061 -0.1594,-0.1052 -0.047,-0.044 -0.085,-0.096 -0.1149,-0.1526 -0.03,-0.056 -0.052,-0.1168 -0.073,-0.177 0.1538,0.4332 0.2214,0.9048 0.2349,1.4144 0.014,0.5133 -0.028,1.0426 -0.08,1.5943 -0.2561,2.6551 -0.7882,5.3257 -1.0285,8.0682 -5e-4,0.01 -9e-4,0.011 -0,0.017 -0.1159,1.7399 0.025,3.4582 0.1829,5.1062 0.1617,1.6877 0.3388,3.2842 0.3297,4.8951 0,0 0,0.01 10e-5,0.011 0.033,3.9575 -0.083,7.8448 -0.4384,11.677 -0.111,1.0356 -0.2058,1.9694 -0.4154,2.8844 l 0.658,-0.6076 c 0.031,-0 0.06,-0 0.085,9e-4 0.023,0 0.035,0.01 0.035,0.01 -10e-5,0 -0.047,-0.027 -0.1121,-0.083 -0.076,-0.065 -0.1419,-0.1307 -0.2504,-0.233 -0.085,-0.08 -0.2005,-0.1865 -0.3324,-0.2802 -0.3378,-0.288 -0.6671,-0.6079 -1.0053,-0.8941 -0.3857,-0.3265 -0.8219,-0.6485 -1.3411,-0.8769 -0.041,-0.018 -0.082,-0.035 -0.1246,-0.046 -0.043,-0.011 -0.087,-0.015 -0.1313,-0.019 -0.1676,-0.014 -0.3283,0 -0.4784,0.048 -0.1496,0.043 -0.2784,0.1086 -0.3868,0.1795 -0.1085,0.071 -0.2004,0.15 -0.2767,0.2245 -0.077,0.075 -0.1448,0.1523 -0.2026,0.2221 -0.1191,0.1441 -0.2111,0.2727 -0.2859,0.3669 -0.039,0.049 -0.07,0.086 -0.097,0.1138 -0.027,0.029 -0.043,0.042 -0.048,0.046 -0.044,0.033 -0.084,0.07 -0.1201,0.1115 -1.1279,1.2888 -2.1091,2.4101 -3.1033,3.5824 -0.018,0.021 -0.034,0.043 -0.05,0.065 -1.6032,2.3438 -2.4882,3.8344 -3.9249,5.6896 -0,0.01 -0.01,0.011 -0.012,0.016 -0.01,0.01 -0.017,0.022 -0.03,0.037 -0.013,0.016 -0.027,0.031 -0.039,0.043 -0.012,0.013 -0.022,0.021 -0.021,0.021 6e-4,-5e-4 0.01,-0.011 0.06,-0.04 0.023,-0.013 0.069,-0.037 0.1348,-0.056 0.063,-0.019 0.1867,-0.046 0.3423,-0.018 0.083,0.015 0.1719,0.045 0.2588,0.097 0.088,0.053 0.1607,0.12 0.2165,0.193 0.055,0.072 0.09,0.144 0.1111,0.204 0.022,0.06 0.032,0.1132 0.037,0.1532 0.01,0.078 0,0.1363 0,0.1606 -0,0.029 -0.01,0.046 -0.01,0.048 -0,0.01 0.01,-0.02 0.024,-0.065 a 0.79306703,0.79306703 90 0 0 -1.4708,-0.594 c -0.033,0.082 -0.065,0.1716 -0.089,0.2612 -0.011,0.043 -0.023,0.097 -0.03,0.1561 -0.01,0.054 -0.013,0.1379 -2e-4,0.236 0.01,0.05 0.019,0.1117 0.043,0.1795 0.024,0.068 0.062,0.1457 0.1214,0.2234 0.06,0.078 0.1367,0.1497 0.2305,0.2057 0.092,0.055 0.1872,0.087 0.2765,0.1033 0.1684,0.03 0.3073,10e-4 0.3873,-0.023 0.082,-0.024 0.1472,-0.057 0.1906,-0.081 0.083,-0.047 0.1504,-0.1002 0.1954,-0.1388 0.047,-0.04 0.091,-0.083 0.1297,-0.123 0.038,-0.039 0.075,-0.08 0.1091,-0.1209 0.031,-0.036 0.061,-0.075 0.09,-0.1136 1.461,-1.8865 2.4152,-3.4766 3.9514,-5.7243 0.9449,-1.1142 1.905,-2.2119 3.0148,-3.48 0.066,-0.055 0.1237,-0.112 0.1748,-0.1662 0.069,-0.073 0.1307,-0.1475 0.1845,-0.2151 0.1073,-0.1351 0.1951,-0.2566 0.2664,-0.3427 0.036,-0.043 0.065,-0.075 0.088,-0.098 0.022,-0.022 0.037,-0.032 0.037,-0.032 4e-4,-3e-4 -0.014,0.01 -0.04,0.017 -0.029,0.01 -0.06,0.012 -0.09,0.01 -0.044,-0 -0.088,-0.01 -0.1313,-0.019 -0.043,-0.011 -0.084,-0.028 -0.1246,-0.046 0.3192,0.1404 0.6216,0.3533 0.9546,0.6354 0.3531,0.299 0.6814,0.6198 1.0345,0.9188 0.023,0.019 0.046,0.037 0.071,0.053 0.031,0.021 0.08,0.061 0.1695,0.1457 0.072,0.068 0.1928,0.1864 0.3079,0.2847 0.1182,0.101 0.2814,0.2268 0.4818,0.3187 0.1025,0.047 0.2204,0.088 0.3521,0.1108 0.1324,0.023 0.2731,0.027 0.4188,0.01 0.081,-0.012 0.1619,-0.025 0.239,-0.051 0.077,-0.027 0.1498,-0.067 0.2098,-0.1229 0.06,-0.055 0.1064,-0.1245 0.1391,-0.1993 0.033,-0.075 0.052,-0.1546 0.07,-0.2342 0.2353,-1.0268 0.3386,-2.0638 0.4471,-3.0751 4e-4,-0 8e-4,-0.01 0,-0.011 0.3615,-3.898 0.4786,-7.8405 0.4456,-11.8368 0.01,-1.7095 -0.1791,-3.4022 -0.337,-5.0498 -0.1575,-1.6437 -0.2852,-3.2453 -0.1797,-4.8413 0.2307,-2.6252 0.7604,-5.2874 1.0266,-8.0471 0.053,-0.5588 0.1034,-1.1705 0.087,-1.7874 -0.016,-0.6193 -0.1,-1.2669 -0.3259,-1.9033 -0.021,-0.06 -0.043,-0.1206 -0.073,-0.177 -0.03,-0.056 -0.068,-0.1088 -0.1149,-0.1526 -0.047,-0.044 -0.1012,-0.079 -0.1594,-0.1052 -0.058,-0.027 -0.1198,-0.045 -0.1813,-0.062 -0.1397,-0.04 -0.2603,-0.034 -0.3363,-0.023 -0.078,0.011 -0.1397,0.031 -0.18,0.046 -0.078,0.029 -0.1381,0.065 -0.1696,0.085 -0.036,0.023 -0.068,0.045 -0.092,0.064 -0.025,0.019 -0.049,0.038 -0.071,0.056 -0.043,0.035 -0.087,0.074 -0.1269,0.1099 -0.041,0.036 -0.084,0.076 -0.1249,0.1129 -0.085,0.077 -0.1631,0.1475 -0.2333,0.2057 -0.034,0.028 -0.062,0.05 -0.083,0.065 -0.023,0.016 -0.027,0.018 -0.015,0.011 l -0.201,0.1514 c -0.014,0.014 -0.027,0.022 -0.034,0.024 -0.01,0 0,-0 0.039,3e-4 0.018,0 0.042,0.01 0.07,0.021 0.028,0.013 0.056,0.032 0.08,0.055 0.046,0.045 0.058,0.097 0.055,0.079 -0.01,-0.036 -0.016,-0.072 -0.027,-0.1077 -0.049,-0.1498 -0.1212,-0.2939 -0.2208,-0.4234 -0.1004,-0.1305 -0.224,-0.2398 -0.3667,-0.3213 -0.1426,-0.081 -0.2944,-0.1295 -0.4454,-0.1491 -0.1503,-0.02 -0.2965,-0.01 -0.432,0.019 -0.2691,0.058 -0.5099,0.1972 -0.6961,0.384 -0.1581,0.1586 -0.2844,0.3588 -0.3573,0.5894 -0.08,0.1461 -0.148,0.291 -0.2069,0.4215 -0.074,0.1632 -0.1377,0.3134 -0.1998,0.4447 -0.063,0.1341 -0.1218,0.2427 -0.1828,0.3341 -0.06,0.09 -0.1184,0.1574 -0.1805,0.2107 l 0.3646,-0.1767 c 0.043,-0.01 0.099,-0.01 0.1572,0 0.056,0.013 0.093,0.035 0.1088,0.046 0.014,0.01 0.013,0.011 -0.01,-0.01 -0.018,-0.019 -0.041,-0.046 -0.077,-0.091 -0.034,-0.043 -0.075,-0.096 -0.1261,-0.1574 -0.049,-0.059 -0.1133,-0.1335 -0.1899,-0.2058 -0.077,-0.073 -0.1797,-0.156 -0.3092,-0.2241 -0.1342,-0.071 -0.2941,-0.1232 -0.476,-0.134 -0.09,-0.01 -0.1803,-0.01 -0.2693,0 -0.089,0.013 -0.1758,0.044 -0.2501,0.095 -0.074,0.051 -0.1349,0.1202 -0.1797,0.1982 -0.045,0.078 -0.074,0.1638 -0.1017,0.2493 -0.1038,0.3183 -0.1606,0.6363 -0.1842,0.9468 -0.024,0.3131 -0.014,0.6199 0.016,0.9139 0.06,0.5914 0.2051,1.1636 0.3438,1.6571 0,0.01 0,0.011 0,0.017 0.1996,0.6553 0.3869,1.228 0.5415,1.8325 0.1555,0.608 0.2591,1.1818 0.2799,1.751 3e-4,0.01 8e-4,0.018 0,0.028 0.132,1.8479 -0.1534,3.6781 -0.5106,5.5055 -0.3745,1.9164 -0.8172,3.7859 -0.9876,5.7376 -0.078,0.5678 -0.063,1.1143 -0.02,1.6088 0.045,0.5108 0.1287,1.0446 0.1908,1.477 0.073,0.6108 0.1719,1.1727 0.2413,1.6918 0.071,0.5265 0.1104,0.9869 0.1019,1.4274 -0.087,0.1988 -0.2002,0.3928 -0.3236,0.5822 -0.1593,0.2445 -0.3712,0.532 -0.528,0.7531 -0.3343,0.437 -0.6716,0.8423 -0.9956,1.2122 -0.6205,0.7084 -1.2676,1.3725 -1.8879,1.9818 -1.1394,1.1192 -2.235,2.1106 -3.2122,3.0393 -1.0767,1.029 -1.7886,1.6902 -2.6112,2.5444 -1.1255,1.1685 -1.8454,2.0895 -2.3812,2.8884 a 0.79306703,0.79306703 90 0 0 1.3174,0.8834 z"
         id="path-1-04"
         style="display:inline;fill:#000000;fill-rule:nonzero;stroke:none;stroke-opacity:1" /><path
         style="display:inline;fill:#000000;fill-opacity:1;stroke:none;stroke-width:0.264583;stroke-opacity:1"
         d="m 1553.1773,1564.3007 c -1.0201,-0.2179 -1.3365,-0.028 -1.9599,0.7078 -0.9306,1.0987 -1.5945,3.1915 -0.029,4.0278 0.4555,0.2433 0.905,0.1273 1.4162,0.2059 1.8991,0.292 3.5382,-2.9637 1.9742,-4.4525 -0.293,-0.2789 -1.2994,-0.4594 -1.4019,-0.489 z"
         id="path3479" /><circle
         style="display:inline;fill:#ffd5d5;fill-opacity:1;stroke:none;stroke-width:0.264583;stroke-opacity:1"
         id="path3582"
         cx="1542.7673"
         cy="1572.6929"
         r="2.9414816" /><path
         style="display:inline;fill:none;fill-opacity:1;fill-rule:nonzero;stroke:#000000;stroke-width:1.465;stroke-linecap:round;stroke-dasharray:none;stroke-opacity:1"
         d="m 1589.093,1549.8662 c -1.0456,-0.091 -1.4666,0.6287 -2.2937,1.0595 -4.3307,2.2553 -4.9385,5.1741 -4.4013,9.7166 0.4143,3.5035 0.5144,6.9864 -0.5115,10.4137 -0.1805,0.6033 -0.5128,1.1328 -0.7438,1.7147 -0.8904,2.2424 -1.5894,4.5548 -2.4642,6.803 -0.4327,1.1121 -0.9287,2.1587 -1.2398,3.3179 -0.2655,0.9896 -2.1029,5.786 -0.2634,6.0224 0.9795,0.1259 3.4661,-0.8814 4.2308,-1.422 0.6321,-0.4467 1.1165,-1.1033 1.7203,-1.5892 1.8051,-1.4529 4.5482,-3.8622 5.7806,-5.7714 0.6181,-0.9576 0.865,-1.9675 1.3328,-2.9694 0.2981,-0.6384 0.8014,-1.3858 0.8369,-2.119 0.1623,-3.3588 -1.5552,-6.5753 -1.1934,-9.9118 0.4203,-3.8752 3.9087,-5.5606 5.1298,-9.0754 0.1607,-0.4626 0.075,-0.9632 0.015,-1.4359 -0.282,-2.2315 -1.8544,-4.1271 -4.0604,-4.7537 -0.4737,-0.1346 -1.5455,0.015 -1.8753,0 z"
         id="path3986" /><path
         style="display:inline;fill:none;fill-opacity:1;fill-rule:nonzero;stroke:#000000;stroke-width:1.565;stroke-linecap:round;stroke-dasharray:none;stroke-opacity:1"
         d="m 1589.574,1549.9837 c 5.606,-2.2568 11.6964,-3.3015 17.7341,-3.042 4.1161,0.1769 8.2583,0.973 11.9346,2.8326 1.9456,0.9842 3.733,2.2502 5.4988,3.5293 4.0669,2.9458 8.1249,6.0485 11.0908,10.1008 3.0865,4.217 4.8373,9.2601 6.1349,14.3224 1.2976,5.0622 2.1878,10.233 3.7771,15.2114 0.5777,1.8095 1.2492,3.6 1.5682,5.4725 0.8212,4.8206 -0.7543,9.7129 -2.6234,14.2317 -1.8253,4.4129 -3.9493,8.6953 -6.0958,12.9612 -3.5205,6.9966 -7.118,13.987 -9.7029,21.3806 -0.1035,0.2961 -0.2054,0.5928 -0.3056,0.89"
         id="path4030" /><path
         style="display:inline;fill:none;fill-opacity:1;fill-rule:nonzero;stroke:#000000;stroke-width:1.665;stroke-linecap:round;stroke-dasharray:none;stroke-opacity:1"
         d="m 1589.8833,1578.9464 c 1.2447,0.2012 2.5019,0.325 3.762,0.3706 1.9336,0.07 3.8737,-0.045 5.786,-0.339 2.4367,-0.375 4.8804,-1.0666 6.8937,-2.4896 1.1625,-0.8217 2.1597,-1.8764 2.9149,-3.0831"
         id="path4036" /><path
         style="display:inline;fill:none;fill-opacity:1;fill-rule:nonzero;stroke:#000000;stroke-width:1.565;stroke-dasharray:none;stroke-opacity:1"
         d="m 1604.3582,1577.5105 c 2.0338,0.1982 4.0353,0.723 5.9047,1.5481 4.3562,1.9228 7.9199,5.4832 10.0811,9.7262 1.2614,2.4764 2.0612,5.1663 2.6151,7.8897 0.708,3.4813 1.0138,7.1466 -0.013,10.5475 -1.3071,4.3294 -4.5866,7.719 -7.4358,11.2311 -3.0032,3.7019 -5.6304,7.7162 -8.896,11.1889 -4.5817,4.8723 -10.3213,8.5723 -14.7182,13.612 -1.1604,1.33 -2.2333,2.759 -3.6166,3.8553 -0.8824,0.6993 -1.8722,1.2478 -2.8241,1.8491 -4.9304,3.1147 -8.8853,7.7358 -11.2535,13.0652 -0.6591,1.4832 -1.2072,3.1007 -0.9563,4.7042 0.045,0.2879 0.1157,0.5718 0.2107,0.8473"
         id="path4042" /><path
         style="display:inline;fill:none;fill-opacity:1;fill-rule:nonzero;stroke:#000000;stroke-width:1.665;stroke-dasharray:none;stroke-opacity:1"
         d="m 1628.7186,1647.2469 c -0.235,2.1202 0.3447,4.3205 1.5939,6.0497 0.9183,1.2711 2.1608,2.2687 3.4281,3.1923 1.2672,0.9237 2.5821,1.7956 3.7123,2.8827 2.9219,2.8103 4.3524,6.7771 6.2939,10.336 1.9692,3.6097 4.5239,6.8802 6.4137,10.5321 3.4505,6.6679 4.527,14.2677 6.6949,21.4557 1.1711,3.8829 2.6982,7.7184 5.1379,10.9581 1.842,2.4461 4.1593,4.4939 6.1114,6.8531 2.0256,2.4481 3.6623,5.2356 5.9854,7.4033 0.518,0.4833 1.0786,0.9467 1.4217,1.5666 0.3076,0.5558 0.4182,1.2128 0.3411,1.8434 -0.077,0.6305 -0.3374,1.2334 -0.718,1.7421 -0.7611,1.0173 -1.9704,1.63 -3.2138,1.891 -1.2434,0.261 -2.5306,0.202 -3.7961,0.09 -1.2656,-0.1122 -2.5324,-0.2767 -3.8018,-0.2227 -2.0798,0.088 -4.0864,0.7581 -6.1389,1.1051 -1.3845,0.234 -2.7938,0.321 -4.1966,0.259"
         id="path4048" /><path
         style="display:inline;fill:none;fill-opacity:1;fill-rule:nonzero;stroke:#000000;stroke-width:1.565;stroke-linecap:round;stroke-dasharray:none;stroke-opacity:1"
         d="m 1654.5334,1735.2063 c -2.4442,2.4943 -5.4685,4.4165 -8.7645,5.5706 -3.8056,1.3325 -7.8852,1.6338 -11.912,1.8407 -2.6338,0.1353 -5.2693,0.235 -7.9043,0.3455 -3.6267,0.1521 -7.301,0.3207 -10.849,-0.4459 -3.237,-0.6994 -6.2908,-2.1631 -9.5687,-2.6352 -2.013,-0.2899 -4.0584,-0.1978 -6.0913,-0.2562 -4.2629,-0.1225 -8.6192,-0.9593 -12.2068,-3.2651 -2.5484,-1.6379 -4.6316,-3.9891 -5.9592,-6.7121 -1.3276,-2.723 -1.8967,-5.8097 -1.6369,-8.8279 0.3416,-3.9686 2.1374,-7.7977 4.9783,-10.5898 2.2036,-2.1658 4.9523,-3.6776 7.6741,-5.1399 2.7218,-1.4623 5.4887,-2.9267 7.7595,-5.0219 0.6551,-0.6044 1.2727,-1.2642 2.0346,-1.7268 0.3809,-0.2313 0.7969,-0.411 1.2351,-0.4924 0.4381,-0.082 0.8995,-0.062 1.3177,0.092 0.4375,0.1611 0.8193,0.4694 1.0689,0.8631"
         id="path4054" /><path
         style="display:inline;fill:none;fill-opacity:1;fill-rule:nonzero;stroke:#000000;stroke-width:1.565;stroke-linecap:round;stroke-dasharray:none;stroke-opacity:1"
         d="m 1570.0301,1708.1372 c 0.1423,3.9149 1.2146,7.7929 3.1038,11.2248 1.4525,2.6385 3.416,5.0424 5.934,6.695 0.273,0.1792 0.5519,0.3492 0.8362,0.5098"
         id="path4060" /><path
         style="display:inline;fill:none;fill-opacity:1;fill-rule:nonzero;stroke:#000000;stroke-width:1.765;stroke-dasharray:none;stroke-opacity:1"
         d="m 1573.8179,1666.8471 c -0,0.4329 0.075,0.8663 0.2291,1.2708 0.099,0.2595 0.2335,0.5132 0.4425,0.6962 0.2052,0.1797 0.478,0.2815 0.7507,0.2753 0.2727,-0.01 0.5422,-0.1213 0.7319,-0.3173 0.088,-0.091 0.1607,-0.1997 0.2659,-0.2706 0.053,-0.035 0.1133,-0.061 0.1766,-0.064 0.063,-0 0.1291,0.017 0.1744,0.061 0.034,0.033 0.054,0.077 0.063,0.1234 0.01,0.046 0.01,0.094 -0,0.14 -0.016,0.092 -0.055,0.1797 -0.073,0.2718 -0.024,0.1248 -0.01,0.2566 0.04,0.3737 0.049,0.1171 0.1331,0.2192 0.2367,0.2929 0.1078,0.077 0.2364,0.1224 0.3679,0.1368 0.1314,0.014 0.2656,-0 0.3915,-0.043 0.1801,-0.058 0.343,-0.163 0.5258,-0.2118 0.091,-0.024 0.188,-0.034 0.2807,-0.015 0.093,0.019 0.181,0.068 0.2356,0.1457 0.052,0.073 0.07,0.1657 0.067,0.2551 -0,0.09 -0.025,0.177 -0.049,0.2633 -0.2294,0.8317 -0.5857,1.622 -0.8745,2.4349 -0.4167,1.1729 -0.692,2.3914 -0.9199,3.6151 -0.2752,1.478 -0.4825,2.9686 -0.7873,4.4408 -0.2094,1.0115 -0.4645,2.0128 -0.6957,3.0195 -0.1839,0.8008 -0.3528,1.6052 -0.5484,2.4032 -0.4013,1.6371 -0.9172,3.2576 -1.07,4.9363 -0.07,0.7694 -0.061,1.5581 0.1638,2.2972 0.3604,1.1852 1.2335,2.1315 1.8949,3.1789 0.4406,0.6978 0.7923,1.4506 1.2638,2.1279 0.3712,0.5332 0.8123,1.0133 1.2513,1.4921 1.4529,1.5847 2.9031,3.1802 4.1502,4.9315 0.7913,1.1112 1.5099,2.2954 2.5187,3.2136 0.1646,0.1498 0.3372,0.2928 0.4773,0.4657 0.1402,0.1728 0.2477,0.3815 0.2564,0.6039 8e-4,0.021 8e-4,0.041 -10e-5,0.062"
         id="path4114" /><path
         style="display:inline;fill:none;fill-opacity:1;fill-rule:nonzero;stroke:#000000;stroke-width:1.765;stroke-dasharray:none;stroke-opacity:1"
         d="m 1570.9008,1704.6761 c 0.097,0.3965 0.3671,0.7474 0.7255,0.9428 0.2816,0.1536 0.6173,0.2114 0.9312,0.1451 0.3423,-0.072 0.6422,-0.2855 0.8767,-0.5452 0.3826,-0.4238 0.6052,-0.9639 0.8312,-1.4882 0.1078,-0.2499 0.2185,-0.5001 0.3664,-0.7286 0.025,-0.038 0.051,-0.077 0.085,-0.1071 0.034,-0.031 0.077,-0.053 0.1232,-0.054 0.045,-0 0.089,0.018 0.125,0.045 0.036,0.027 0.066,0.062 0.095,0.096 0.2502,0.2894 0.5213,0.5604 0.7665,0.854 0.2336,0.2797 0.4428,0.5788 0.6585,0.8725 1.0657,1.4509 2.2938,2.7733 3.4969,4.1125 0.3119,0.3471 0.6231,0.6967 0.8883,1.0807 0.2424,0.351 0.4445,0.728 0.6423,1.106 0.1887,0.3606 0.3773,0.7279 0.6528,1.0275 0.074,0.081 0.1543,0.156 0.2395,0.2251"
         id="path4120" /><path
         style="display:inline;fill:#ffa428;fill-opacity:1;fill-rule:nonzero;stroke:#000000;stroke-width:0.738476;stroke-dasharray:none;stroke-opacity:1"
         d="m 1573.0656,1668.4621 c -0.4645,0.2272 -0.2293,0.9523 -0.5475,1.3272 -0.3321,1.5005 -0.2999,3.0637 -0.5774,4.5784 -0.4525,3.1211 -0.9375,6.2754 -0.6596,9.4403 0.5713,6.1183 0.5437,12.3066 -0.056,18.4125 -0.024,0.8164 -0.3412,1.6351 -0.2623,2.4452 0.2323,0.2996 0.6996,-0.1154 0.9148,0.2601 0.8103,0.3336 1.4815,-0.5815 1.6921,-1.2639 0.1954,-0.6601 0.5157,-1.6155 1.3911,-1.5103 0.9542,0.3489 1.3826,1.3929 2.1046,2.0437 1.8093,2.0173 3.7477,3.9572 5.0245,6.3776 0.2506,0.2316 0.3568,0.969 0.7911,0.8022 0.6228,-0.6431 1.3385,-1.2485 1.8337,-1.9883 -0.4493,-1.0412 -1.3182,-1.873 -1.9753,-2.7953 -1.9849,-2.597 -4.2909,-4.9427 -6.2181,-7.5737 -1.1004,-1.7416 -2.4299,-3.375 -3.1529,-5.3195 -0.9514,-2.7177 0.2207,-5.5035 0.8601,-8.1449 0.7853,-3.3185 1.5902,-6.6436 1.9313,-10.0437 0.1206,-1.4009 0.7245,-2.7043 1.5617,-3.8318 0.1979,-0.2942 0.6683,-1.0248 0.046,-1.1375 -0.6358,0.039 -1.4364,-0.03 -1.7046,-0.7094 -0.6286,-0.3915 -1.5284,0.068 -2.1047,-0.5172 -0.3979,-0.1769 -0.509,-0.7276 -0.8927,-0.8517 z"
         id="path4272" /><path
         style="display:inline;fill:#28170b;fill-opacity:1;fill-rule:nonzero;stroke:none;stroke-width:1.97407;stroke-dasharray:none;stroke-opacity:1"
         d="m 1598.2781,1562.0339 c -0.3139,-0.078 -0.6339,-0.1322 -0.9561,-0.1608 -0.248,-0.022 -0.5025,-0.028 -0.7412,0.043 -0.2951,0.088 -0.5439,0.2873 -0.7631,0.5034 -0.1684,0.166 -0.3247,0.345 -0.4568,0.5411 -0.2235,0.332 -0.3768,0.7193 -0.3886,1.1194 -0.013,0.4338 0.1418,0.8623 0.3857,1.2213 0.3177,0.4677 0.7846,0.8261 1.3053,1.0465 0.4004,0.1695 0.8467,0.2603 1.273,0.1747 0.2925,-0.059 0.5664,-0.1996 0.7928,-0.394 0.3038,-0.2608 0.5187,-0.611 0.6839,-0.9757 0.1935,-0.4272 0.3263,-0.8888 0.3249,-1.3578 -0,-0.3637 -0.086,-0.733 -0.2855,-1.0373 -0.1417,-0.2166 -0.3402,-0.3969 -0.5733,-0.5094 -0.2001,-0.097 -0.4209,-0.1421 -0.6264,-0.2266 -0.2262,-0.093 -0.4305,-0.2315 -0.6475,-0.3443 -0.1169,-0.061 -0.2426,-0.1152 -0.3743,-0.1133 -0.1355,0 -0.2622,0.063 -0.3837,0.1228 -0.1383,0.068 -0.2765,0.1365 -0.4146,0.205"
         id="path4627" /><ellipse
         style="display:inline;fill:#ffd5d5;fill-opacity:1;fill-rule:nonzero;stroke:none;stroke-width:1.765;stroke-dasharray:none;stroke-opacity:1"
         id="path4748"
         cx="1606.8284"
         cy="1566.7007"
         rx="3.3486731"
         ry="3.1695523" /><path
         style="display:inline;fill:none;fill-opacity:1;fill-rule:nonzero;stroke:none;stroke-width:2.252;stroke-dasharray:none;stroke-opacity:1"
         d="m 1605.0012,1578.4631 c -3.4755,0.5937 -6.8672,1.7537 -10.4474,1.4572 -1.6256,0.3995 -4.1438,-0.8354 -5.1801,0.6586 -2.3666,3.0922 -5.42,5.6868 -8.5153,8.0342 -1.5401,0.9695 -4.0941,0.3847 -4.7559,2.5003 -1.229,1.7968 -3.2798,-0.2001 -4.3497,-1.1605 -2.6122,-2.6815 -5.4834,-5.5495 -9.4267,-5.9658 -2.1731,-0.3528 -4.5749,-1.1453 -5.4476,-3.3791 -1.0824,-1.0544 -2.6281,0.5567 -3.877,0.5192 -3.0658,0.894 -6.3035,0.5199 -9.4478,0.5331 -6.5236,5.4672 -14.1323,11.2233 -16.2207,19.9434 -2.0588,9.0661 2.5064,18.2881 8.9743,24.4607 7.3303,7.4528 16.2839,12.9391 24.641,19.1102 6.0146,4.3722 9.3422,11.3687 11.6096,18.259 0.9167,-1.1385 1.1266,-3.2634 2.1251,-4.6761 4.184,-6.7696 11.3138,-10.8488 16.9472,-16.2728 9.3058,-8.4075 17.9275,-17.572 26.0464,-27.1217 4.4653,-4.9628 6.0265,-12.072 4.4259,-18.5039 -1.5942,-8.1056 -7.0857,-16.1066 -15.4516,-18.1712 -0.5376,-0.1409 -1.0909,-0.2524 -1.6497,-0.2248 z"
         id="path4927" /></g></g></svg>
