<?xml version="1.0" encoding="UTF-8" standalone="no"?>
<!-- Created with Inkscape (http://www.inkscape.org/) -->

<svg
   width="483.90225"
   height="826.14832"
   viewBox="0 0 128.03247 218.58507"
   version="1.1"
   id="svg24781"
   xml:space="preserve"
   sodipodi:docname="gosse_color_plain.svg"
   inkscape:version="1.1.2 (0a00cf5339, 2022-02-04)"
   xmlns:inkscape="http://www.inkscape.org/namespaces/inkscape"
   xmlns:sodipodi="http://sodipodi.sourceforge.net/DTD/sodipodi-0.dtd"
   xmlns="http://www.w3.org/2000/svg"
   xmlns:svg="http://www.w3.org/2000/svg"><sodipodi:namedview
     id="namedview903"
     pagecolor="#505050"
     bordercolor="#eeeeee"
     borderopacity="1"
     inkscape:pageshadow="0"
     inkscape:pageopacity="0"
     inkscape:pagecheckerboard="0"
     inkscape:document-units="mm"
     showgrid="false"
     fit-margin-top="1"
     fit-margin-left="1"
     fit-margin-right="1"
     fit-margin-bottom="1"
     inkscape:zoom="0.64052329"
     inkscape:cx="247.45392"
     inkscape:cy="426.21401"
     inkscape:window-width="2560"
     inkscape:window-height="1419"
     inkscape:window-x="0"
     inkscape:window-y="0"
     inkscape:window-maximized="1"
     inkscape:current-layer="g3405"
     units="px"
     height="826.14832px" /><defs
     id="defs24778" /><g
     id="layer8"
     style="display:inline;fill:#ffffff"
     transform="translate(-42.288552,-35.446446)"><path
       style="fill:#ff9955;fill-opacity:1;stroke:#000000;stroke-width:1.565;stroke-linecap:round"
       d="m 82.983024,209.11029 c 0.770593,1.68239 1.362877,3.44639 1.763736,5.25292 0.270541,1.21923 0.453808,2.45582 0.666962,3.68638 0.342679,1.97833 0.763532,3.94695 0.948563,5.9462 0.119234,1.28831 0.139976,2.58407 0.251963,3.87303 0.184601,2.12475 0.617212,4.24899 0.422407,6.37283 -0.192088,2.09422 -0.984385,4.07898 -1.519185,6.11285 -0.581291,2.21068 -0.889128,4.5656 -2.149091,6.47282 -0.572702,0.86691 -1.33539,1.62818 -1.696583,2.60238 -0.180597,0.48709 -0.251784,1.02607 -0.125158,1.5299 0.06331,0.25191 0.175853,0.49243 0.336867,0.69625 0.161013,0.20383 0.371039,0.37022 0.610416,0.47106 0.390956,0.16469 0.840778,0.14721 1.247265,0.0258 0.406487,-0.1214 0.776655,-0.34002 1.131556,-0.57243 1.634214,-1.0702 3.031222,-2.46748 4.640874,-3.57427 0.804826,-0.5534 1.66652,-1.03493 2.593605,-1.34235 0.927085,-0.30742 1.923861,-0.43627 2.888481,-0.28297 1.444692,0.2296 2.715672,1.06358 4.105508,1.51988 0.628344,0.20629 1.28334,0.336 1.88972,0.59996 0.37564,0.16352 0.72879,0.37702 1.11064,0.52546 0.38185,0.14844 0.8082,0.22927 1.20148,0.11448 0.28238,-0.0824 0.5304,-0.26196 0.72435,-0.48314 0.19394,-0.22118 0.33676,-0.48298 0.45157,-0.75382 0.22963,-0.54167 0.35399,-1.1285 0.63969,-1.64281 0.3285,-0.59136 0.86075,-1.058 1.46855,-1.35497 0.6078,-0.29698 1.28831,-0.42966 1.96475,-0.43728 1.35286,-0.0152 2.66022,0.45406 3.91808,0.95232 0.9829,0.38934 1.99915,0.80786 3.05462,0.74746 0.52774,-0.0302 1.05584,-0.18676 1.482,-0.49951 0.42616,-0.31274 0.74184,-0.7899 0.80647,-1.31453 0.0554,-0.45013 -0.0752,-0.91324 -0.32249,-1.29339 -0.24734,-0.38015 -0.60576,-0.68047 -1.00382,-0.89781 -0.79612,-0.43468 -1.72381,-0.54052 -2.62358,-0.65525 -2.5085,-0.31987 -5.08113,-0.80179 -7.18834,-2.19983 -1.64186,-1.0893 -2.89036,-2.6621 -4.30559,-4.03301 -1.01479,-0.98301 -2.12418,-1.86902 -3.312566,-2.63313 -1.023163,-0.65787 -2.116892,-1.23509 -2.979084,-2.09316 -0.747309,-0.74374 -1.288478,-1.66828 -1.756328,-2.61313 -1.444632,-2.9175 -2.258832,-6.10285 -2.942031,-9.28594 -0.383718,-1.78778 -0.7298,-3.5868 -0.911511,-5.40624 -0.144495,-1.4468 -0.18433,-2.9098 -0.0074,-4.35299 0.07627,-0.62214 0.192695,-1.23935 0.348303,-1.84652"
       id="path2567" /><path
       style="fill:#ff9955;fill-opacity:1;stroke:#000000;stroke-width:1.565;stroke-linecap:round;stroke-opacity:1"
       d="m 130.45332,197.37598 c 0.97903,4.3318 1.45015,8.77817 1.40062,13.21895 -0.0309,2.76847 -0.26526,5.54542 -0.9041,8.23935 -0.27385,1.15482 -0.62111,2.29086 -0.91893,3.43973 -0.23411,0.90311 -0.43848,1.82002 -0.48041,2.75204 -0.0419,0.93202 0.0851,1.88576 0.48741,2.72753 0.48754,1.02014 1.34821,1.81742 2.27757,2.46137 0.92936,0.64395 1.94205,1.15846 2.88766,1.7783 0.82813,0.54284 1.60532,1.16673 2.47516,1.63987 0.70065,0.38111 1.45725,0.66202 2.11945,1.10658 0.77622,0.52111 1.39102,1.24558 1.97231,1.97782 0.58128,0.73224 1.14548,1.48807 1.85205,2.10029 0.70658,0.61223 1.58226,1.0784 2.51664,1.10991 0.4672,0.0157 0.94121,-0.08 1.35326,-0.30079 0.41204,-0.22076 0.75919,-0.56926 0.95398,-0.9942 0.20726,-0.45214 0.23604,-0.9619 0.32625,-1.45103 0.0451,-0.24457 0.10684,-0.48791 0.21286,-0.71286 0.10602,-0.22496 0.25861,-0.43184 0.46133,-0.5759 0.16796,-0.11936 0.36609,-0.19258 0.56908,-0.22798 0.20298,-0.0354 0.41108,-0.034 0.61605,-0.0129 0.40993,0.0422 0.80805,0.16192 1.21592,0.22083 0.89383,0.12909 1.80181,-0.0368 2.7049,-0.0333 0.59928,0.002 1.19546,0.0794 1.79337,0.11999 2.14739,0.14591 4.29705,-0.17824 6.41764,-0.54662 0.23089,-0.0401 0.4635,-0.0813 0.68166,-0.16685 0.21816,-0.0856 0.42351,-0.21975 0.55592,-0.41311 0.0899,-0.13131 0.14323,-0.28596 0.16379,-0.44378 0.0206,-0.15782 0.009,-0.31883 -0.0233,-0.47465 -0.0648,-0.31163 -0.21087,-0.5994 -0.35368,-0.88387 -0.1428,-0.28447 -0.28544,-0.57454 -0.3425,-0.88768 -0.0285,-0.15658 -0.035,-0.31803 -0.009,-0.47498 0.0264,-0.15694 0.0865,-0.30934 0.1828,-0.43604 0.12909,-0.16981 0.3194,-0.28764 0.52355,-0.34945 0.20415,-0.0618 0.42179,-0.0701 0.63383,-0.047 0.4241,0.0462 0.82438,0.21362 1.23877,0.31495 0.30691,0.075 0.62462,0.11389 0.93964,0.0895 0.31501,-0.0244 0.62769,-0.11368 0.89568,-0.28104 0.26799,-0.16737 0.48928,-0.41531 0.60284,-0.71015 0.11356,-0.29484 0.11375,-0.63628 -0.0212,-0.92199 -0.0887,-0.18794 -0.23224,-0.34744 -0.40112,-0.46859 -0.16887,-0.12115 -0.36259,-0.20503 -0.56278,-0.26087 -0.40038,-0.1117 -0.82179,-0.11263 -1.23707,-0.13047 -0.91967,-0.0395 -1.83678,-0.16619 -2.72712,-0.39997 -1.19258,-0.31313 -2.3287,-0.8155 -3.52006,-1.13324 -0.8801,-0.23473 -1.78364,-0.36694 -2.68266,-0.5133 -1.33918,-0.21802 -2.67683,-0.46932 -3.97212,-0.87326 -1.53686,-0.47928 -3.00421,-1.17038 -4.55755,-1.59321 -1.57828,-0.42962 -3.23347,-0.57896 -4.76506,-1.15324 -0.75513,-0.28314 -1.46962,-0.66599 -2.22319,-0.95326 -0.50518,-0.19258 -1.02639,-0.34161 -1.52826,-0.54265 -0.50188,-0.20104 -0.99038,-0.45904 -1.37672,-0.83724 -0.44539,-0.43602 -0.73158,-1.00796 -0.96339,-1.58654 -1.00806,-2.51605 -1.11897,-5.29727 -1.02267,-8.00604 0.10139,-2.85202 0.42103,-5.71162 1.21535,-8.45267 0.26399,-0.91097 0.58036,-1.80914 0.7633,-2.73978 0.0406,-0.20653 0.0748,-0.41545 0.14482,-0.61396 0.07,-0.1985 0.17914,-0.38879 0.34428,-0.51929 0.0586,-0.0463 0.12368,-0.0846 0.19268,-0.11332"
       id="path2589" /><path
       style="fill:#ffffff;stroke:#000000;stroke-width:1.565;stroke-linecap:round"
       d="m 112.22549,115.04808 c 1.34684,-0.0743 2.63665,-0.84351 3.3422,-1.99317 0.57025,-0.9292 0.75679,-2.04405 0.80777,-3.13309 0.07,-1.49446 -0.0932,-2.98851 -0.21491,-4.47965 -0.75735,-9.274933 0.0819,-18.61488 -0.45663,-27.905087 -0.14358,-2.47696 -0.385,-4.947815 -0.50393,-7.426081 -0.16787,-3.498186 -0.0894,-7.02529 0.55202,-10.468269 0.6414,-3.442978 1.86123,-6.808894 3.8425,-9.69681 1.95199,-2.845242 4.58401,-5.153446 7.30691,-7.27276 2.18485,-1.70053 4.47477,-3.316069 7.0427,-4.351003 2.56793,-1.034933 5.45755,-1.45666 8.12692,-0.721933 2.7274,0.7507 5.03695,2.661402 6.67701,4.966277 0.6428,0.903358 1.19758,1.87734 1.55624,2.926437 0.45442,1.329173 0.58445,2.745755 0.93374,4.106341 0.43152,1.680915 1.19238,3.257576 1.73409,4.906283 0.65307,1.987625 0.98916,4.08387 1.84526,5.99286 0.66748,1.488383 1.64004,2.835918 2.18614,4.372988 0.39274,1.105407 0.5586,2.292858 1.07455,3.346405 0.097,0.198082 0.20845,0.399484 0.21491,0.61995 0.004,0.148898 -0.0408,0.296602 -0.11333,0.426704 -0.0726,0.130103 -0.17167,0.243729 -0.27944,0.346568 -0.44479,0.424454 -1.03649,0.669269 -1.63908,0.791297 -0.60259,0.122027 -1.22173,0.129609 -1.83652,0.135297 -0.62812,0.0058 -1.25735,0.01016 -1.88231,0.07333 -0.61528,0.06219 -1.22683,0.181369 -1.84525,0.179985 -1.37359,-0.0031 -2.67601,-0.598476 -3.86095,-1.29323 -0.67761,-0.397294 -1.33662,-0.833205 -1.91937,-1.359892 -1.06304,-0.960775 -1.83823,-2.190081 -2.71971,-3.319741 -1.10505,-1.416173 -2.43115,-2.717505 -4.07586,-3.439728 -0.36116,-0.158592 -0.73541,-0.288124 -1.11901,-0.379968 -1.37565,-0.329362 -2.8664,-0.153616 -4.12774,0.486626 -1.17657,7.086298 -0.47709,14.47547 2.00829,21.215116 0.36965,1.002392 0.77774,1.990119 1.16348,2.986432 0.56145,1.45015 1.07558,2.918606 1.65999,4.359656 0.52643,1.298079 1.1094,2.572739 1.63034,3.873029 0.55086,1.374957 1.03181,2.777275 1.46731,4.193003 0.8075,2.624998 1.4604,5.300638 2.42329,7.872708 0.77146,2.06073 1.73714,4.04208 2.6456,6.04619 0.72225,1.59331 1.40978,3.20421 2.2232,4.75296 0.91925,1.75024 1.99542,3.41359 3.11989,5.0396 0.97602,1.41135 1.99297,2.80204 2.79382,4.31966 0.57518,1.08998 1.03553,2.2405 1.37097,3.4264 0.52965,1.14746 1.11093,2.27108 1.7415,3.36633 0.23402,0.40648 0.47498,0.80932 0.6892,1.22657 1.33274,2.59582 1.56635,5.60287 1.65998,8.51933 0.14685,4.57415 0.006,9.19293 -1.02267,13.65226 -0.8161,3.53692 -2.18935,6.94468 -4.05363,10.05921 -2.99157,4.04018 -5.23874,8.62973 -6.59549,13.47037 -0.86479,3.08541 -1.36841,6.25881 -2.06757,9.38592 -0.42809,1.9147 -0.94365,3.84613 -1.97865,5.5129 -0.94755,1.52595 -2.32445,2.78905 -3.94545,3.56285 -1.62099,0.77379 -3.48242,1.04966 -5.25118,0.73682 -1.17517,-0.20785 -2.29963,-0.66886 -3.31256,-1.2999 -0.78405,-0.48845 -1.50237,-1.07705 -2.28989,-1.55988 -1.39394,-0.85463 -2.97283,-1.35934 -4.41676,-2.1265 -0.66,-0.35066 -1.29088,-0.75569 -1.96245,-1.08365 -0.67157,-0.32796 -1.39585,-0.57992 -2.14305,-0.59622 -0.67661,-0.0148 -1.3451,0.16458 -1.97179,0.42006 -0.62669,0.25549 -1.21906,0.58673 -1.82247,0.89317 -4.29611,2.18178 -9.1482,3.10529 -13.42071,5.33292 -1.82005,0.94895 -3.511691,2.12294 -5.198069,3.29308 -3.272973,2.27104 -6.58776,4.56209 -10.308228,5.98619 -1.295474,0.49588 -2.672354,0.8873 -4.053631,0.75994 -1.545235,-0.14248 -2.974741,-0.93119 -4.137653,-1.95865 -1.162912,-1.02747 -2.091331,-2.2888 -2.998813,-3.54758 -0.99452,-1.37951 -1.97641,-2.77003 -3.053191,-4.08634 -0.911889,-1.11474 -1.900009,-2.18844 -2.564087,-3.4664 -0.221867,-0.42696 -0.405629,-0.87372 -0.548389,-1.33322 -0.873423,-1.54504 -1.710695,-3.11053 -2.5109,-4.69473 -0.506754,-1.00325 -0.998717,-2.01414 -1.526596,-3.00643 -0.587424,-1.10422 -1.221721,-2.18881 -1.993468,-3.17308 -1.064585,-1.35775 -2.375239,-2.50532 -3.460778,-3.84637 -2.258436,-2.79002 -3.441059,-6.27992 -4.468627,-9.71923 -0.967922,-3.23968 -1.844025,-6.55159 -1.882308,-9.93255 -0.01297,-1.14572 0.0706,-2.29303 -0.0019,-3.43653 -0.07247,-1.1435 -0.311946,-2.3033 -0.917048,-3.27628 -0.367371,-0.59072 -0.856909,-1.09348 -1.311686,-1.61987 -0.36714,-0.42495 -0.713521,-0.86784 -1.037493,-1.32656 l -1.334035,-1.80408 c -0.62747,-0.84856 -1.229255,-1.72181 -1.687236,-2.67262 -0.457981,-0.9508 -0.781965,-1.95947 -1.091644,-2.96837 -0.438886,-1.42984 -0.868767,-2.86267 -1.259814,-4.30633 -0.365996,-1.35118 -0.697845,-2.71135 -1.02267,-4.07301 -0.456537,-1.91379 -0.902348,-3.86818 -0.744801,-5.82936 0.07877,-0.98059 0.311638,-1.95518 0.750376,-2.83567 0.438738,-0.88049 1.089002,-1.6646 1.913784,-2.20078 0.845702,-0.54978 1.851459,-0.82519 2.858303,-0.88634 1.006844,-0.0611 2.017441,0.0845 2.996804,0.32601 1.958727,0.483 3.812519,1.34652 5.787041,1.76024 2.575975,0.53974 5.269724,0.29584 7.840477,0.85993 1.039519,0.2281 2.047681,0.58619 3.090246,0.79993 1.811365,0.37136 3.705198,0.29642 5.498709,-0.15332 2.563631,-0.64285 4.876162,-2.01972 7.351373,-2.94643 1.908332,-0.71448 3.904866,-1.15818 5.869242,-1.69987 3.198494,-0.88201 6.318024,-2.02593 9.485646,-3.01309 3.069784,-0.95667 6.183664,-1.76576 9.307784,-2.52647 1.88803,-0.45973 3.78033,-0.90194 5.67657,-1.32656"
       id="path2563" /><path
       style="fill:#ffffff;stroke:#000000;stroke-width:1.565;stroke-linecap:round;stroke-linejoin:bevel"
       d="m 136.18552,43.265198 c -0.52301,-0.106051 -1.08352,-0.01532 -1.54636,0.250302 -0.46285,0.265625 -0.82396,0.703813 -0.99624,1.208888 -0.10039,0.294321 -0.13761,0.616055 -0.0638,0.918141 0.0915,0.374297 0.35391,0.698568 0.68999,0.887027 0.33607,0.188459 0.73993,0.244189 1.11945,0.177657 0.37952,-0.06653 0.73407,-0.251346 1.02306,-0.506189 0.289,-0.254844 0.51393,-0.577878 0.67611,-0.927393 0.12992,-0.280003 0.2216,-0.583869 0.21461,-0.892467 -0.007,-0.308597 -0.12153,-0.622934 -0.35131,-0.829047 -0.20671,-0.185418 -0.48837,-0.269499 -0.76551,-0.286919 -0.4865,-0.03058 -0.98256,0.135659 -1.35239,0.453215 -0.36984,0.317556 -0.60918,0.782769 -0.65253,1.268299"
       id="path2597" /><path
       style="fill:#ffffff;stroke:none;stroke-width:5.91495;stroke-linecap:round;stroke-linejoin:bevel"
       d="m 514.19961,166.00136 c -2.53091,0.16857 -4.53937,2.15935 -4.83474,4.61958 -0.9419,0.92437 -2.23232,3.26846 -0.004,3.50671 3.76343,0.75356 7.55879,-3.46909 6.9804,-7.08248 -0.33257,-0.84358 -1.31177,-1.12897 -2.14166,-1.04381 z"
       id="path2808"
       transform="scale(0.26458333)" /><path
       style="fill:#0a0400;fill-opacity:1;stroke:none;stroke-width:5.91495;stroke-linecap:round;stroke-linejoin:bevel"
       d="m 513.91239,165.56002 c -3.58425,0.53693 -5.86562,4.59759 -6.03967,7.94114 1.37261,2.56054 5.34674,0.91208 6.81127,-0.86066 2.14629,-1.73665 3.6976,-6.94949 -0.41632,-7.08949 h -0.045 z"
       id="path2883"
       transform="scale(0.26458333)" /><path
       style="fill:none;fill-opacity:1;stroke:#000000;stroke-width:1.565;stroke-linecap:round;stroke-linejoin:bevel;stroke-opacity:1"
       d="m 132.86238,61.236568 c -0.38851,0.109039 -0.79245,0.162934 -1.19595,0.159568 -0.82007,-0.0068 -1.62397,-0.249228 -2.36902,-0.591947 -0.4922,-0.226411 -0.96396,-0.497246 -1.40767,-0.808136"
       id="path3676" /><circle
       style="fill:#f9f0f0;fill-opacity:1;stroke:none;stroke-width:1.565;stroke-linecap:round;stroke-linejoin:bevel;stroke-opacity:1"
       id="path3748"
       cx="127.88484"
       cy="54.230438"
       r="2.4517825" /><path
       style="display:inline;fill:#d8aeb7;fill-opacity:1;stroke:#000000;stroke-width:1.565;stroke-linecap:round;stroke-linejoin:bevel;stroke-opacity:1"
       d="m 144.03552,77.61514 3.66021,-6.869569 c 1.21868,-2.141918 3.45981,-3.671011 5.89866,-4.024578 2.43885,-0.353568 5.02194,0.476143 6.79871,2.183802 1.62275,1.55963 2.53198,3.733925 3.0107,5.933149 0.55428,2.546338 0.58374,5.205712 0.086,7.763703 -0.62432,5.51163 -2.05707,10.931019 -4.2382,16.031067 -0.94929,2.219676 -2.03948,4.379066 -3.26184,6.460876 -6.70928,-0.79531 -13.30072,-2.57775 -19.49645,-5.272178 -2.19742,-0.955624 -4.36212,-2.03569 -6.25114,-3.509953 -1.88903,-1.474264 -3.50085,-3.371853 -4.34033,-5.61621 -0.74988,-2.004799 -0.85387,-4.235104 -0.36222,-6.318327 0.49165,-2.083224 1.56898,-4.015695 3.03119,-5.578862 2.16875,-2.318493 5.25441,-3.825911 8.42909,-3.84189 2.56404,-0.01291 5.121,0.95345 7.03559,2.65897 z"
       id="path3968" /><path
       id="path2810"
       style="fill:#ff9955;stroke:#000000;stroke-width:1.565;stroke-linecap:round;stroke-linejoin:bevel;stroke-dasharray:none;stroke-opacity:1;paint-order:normal"
       d="m 147.499,48.141762 c -1.88235,0.169651 -3.79189,0.509249 -5.48851,1.377522 -1.4381,0.981318 -2.41679,2.478899 -3.16852,4.020039 -0.58703,1.199976 -1.08835,2.440289 -1.68399,3.635944 -0.35966,0.946563 -0.9776,1.80607 -1.10634,2.831407 0.0697,0.221697 0.0898,0.479814 0.30621,0.613852 0.47789,0.440364 1.16383,0.466113 1.71434,0.766939 0.51298,0.312669 1.03304,0.620996 1.49315,1.011494 1.94999,1.603137 3.26343,3.805185 5.01924,5.595946 0.39589,0.373901 0.86083,0.668787 1.30367,0.984345 1.23935,0.835173 2.64452,1.536282 4.16306,1.605587 2.0428,-0.132916 4.10423,-0.105669 6.12659,-0.457562 0.6276,-0.159891 1.29694,-0.554951 1.46571,-1.222955 0.0857,-0.325451 -0.027,-0.65763 -0.18386,-0.939821 -0.71335,-2.32314 -1.58188,-4.607645 -2.75033,-6.742914 -1.35997,-2.700671 -1.86249,-5.716932 -2.92355,-8.530492 -0.50562,-1.254628 -0.76256,-2.624794 -1.51508,-3.768516 -0.44002,-0.479393 -1.11124,-0.661302 -1.73772,-0.738532 -0.343,-0.03774 -0.68927,-0.04598 -1.03407,-0.04228 z" /></g><g
     id="g3405"
     style="display:inline;fill:#ffffff"
     transform="translate(-42.288552,-35.446446)"><path
       id="path3393"
       style="fill:#8a668c;fill-opacity:1;stroke:#000000;stroke-width:1.565;stroke-linecap:round;stroke-linejoin:bevel;stroke-dasharray:none;stroke-opacity:1;paint-order:normal"
       d="m 145.08665,148.22359 c 1.79851,-4.63893 3.33517,-10.71459 4.20198,-15.33386 0.8668,-4.61928 1.06343,-7.78267 -5.4979,-10.28427 -6.56133,-2.5016 -19.83111,-4.3322 -26.86721,-5.32567 -7.0361,-0.99346 -7.76355,-1.13937 -7.73554,-0.41047 0.028,0.72889 0.81759,2.34782 1.68289,4.24369 0.86529,1.89587 1.81483,4.08581 2.78973,5.88069 0.9749,1.79488 1.97441,3.1949 3.04162,4.83259 1.0672,1.63769 2.20236,3.51295 3.65913,5.40407 1.45676,1.89112 3.23447,3.79849 4.96204,5.85367 1.72758,2.05519 3.40533,4.25797 4.98683,6.17809 1.5815,1.92012 3.06649,3.55775 4.52687,5.17994 1.46037,1.62219 2.75907,3.07551 4.67013,2.20154 1.91106,-0.87397 3.78091,-3.78108 5.57943,-8.42001 z" /><path
       id="path3395"
       style="fill:#fffb8b;fill-opacity:1;stroke:#000000;stroke-width:1.565;stroke-linecap:round;stroke-linejoin:bevel;stroke-dasharray:none;stroke-opacity:1;paint-order:normal"
       d="m 137.24962,129.34408 c 1.88111,3.81265 3.76055,7.62192 4.82858,9.84757 1.06804,2.22566 1.32505,2.86787 0.97349,5.28374 -0.35156,2.41588 -1.30997,6.6066 -2.41396,10.62023 -1.10399,4.01364 -2.35504,7.85532 -3.57451,8.45018 -1.21948,0.59487 -2.4038,-2.04629 -3.7887,-5.89215 -1.38491,-3.84585 -2.95541,-8.85679 -3.65713,-11.61293 -0.70172,-2.75615 -0.53751,-3.26992 -0.12698,-4.65705 0.41052,-1.38712 1.06734,-3.64771 1.70014,-5.73736 0.63281,-2.08966 1.24167,-4.00851 1.48298,-5.3509 0.24131,-1.34239 0.11307,-2.11474 0.76182,-2.60089 0.64875,-0.48614 2.04596,-0.67368 3.45813,-0.86322 0,0 0.3561,2.51277 0.3561,2.51277" /><path
       style="fill:#fffb8b;fill-opacity:1;stroke:#000000;stroke-width:1.565;stroke-linecap:round;stroke-linejoin:bevel;stroke-dasharray:none;stroke-opacity:1;paint-order:normal"
       d="m 130.22974,124.89928 c 0.77971,1.64082 1.5579,3.27846 2.36154,4.06348 0.80363,0.78502 1.6318,0.7208 2.64555,0.62444 1.01374,-0.0964 2.21315,-0.22481 3.14539,-0.96207 0.93225,-0.73726 1.60087,-2.08604 2.26889,-3.4336 0.0759,-0.17435 0.15241,-0.34998 0.18749,-0.48331 0.0351,-0.13332 0.028,-0.22607 -0.11367,-0.44494 -0.14163,-0.21887 -0.41992,-0.56401 -0.60679,-0.77783 -0.18686,-0.21383 -0.28276,-0.29583 -0.52772,-0.43051 -0.24495,-0.13468 -0.63929,-0.3211 -1.23403,-0.80628 -0.59474,-0.48519 -1.38934,-1.27027 -2.19232,-1.49396 -0.80298,-0.22369 -1.61298,0.11719 -2.49791,0.62451 -0.88492,0.50733 -1.8465,1.18269 -2.43337,1.79901 -0.58687,0.61632 -0.7946,1.16776 -1.00303,1.72106"
       id="path3399" /><path
       style="fill:#8a668c;fill-opacity:1;stroke:#000000;stroke-width:1.565;stroke-linecap:round;stroke-linejoin:bevel;stroke-dasharray:none;stroke-opacity:1;paint-order:normal"
       d="m 136.46149,119.94709 c 0.15668,-1.13674 1.6615,-2.27225 3.21949,-3.17569 1.55799,-0.90344 3.16496,-1.57213 4.47526,-2.12159 1.3103,-0.54946 2.32409,-0.97975 3.3452,-0.20724 1.02111,0.77251 2.04918,2.7441 2.58386,4.3462 0.53467,1.6021 0.57751,2.83515 0.1456,3.86125 -0.43191,1.02611 -1.33861,1.84814 -2.21293,2.53194 -0.87431,0.68381 -1.71676,1.22969 -3.26475,0.90321 -1.54799,-0.32647 -3.80403,-1.5274 -5.52868,-2.69536 -1.72466,-1.16795 -2.91974,-2.30597 -2.76305,-3.44272 z"
       id="path3401" /><path
       style="fill:#8a668c;fill-opacity:1;stroke:#000000;stroke-width:1.565;stroke-linecap:round;stroke-linejoin:bevel;stroke-dasharray:none;stroke-opacity:1;paint-order:normal"
       d="m 114.91276,111.16497 c -2.26826,0.37802 -4.46005,2.3496 -5.36916,3.5488 -0.90911,1.19919 -0.53786,1.62305 0.15853,2.16853 0.69639,0.54548 1.71731,1.21337 3.43796,2.10256 1.72065,0.8892 4.1409,2.00022 6.37195,3.00203 2.23106,1.00182 4.27292,1.89449 5.57928,2.56928 1.30636,0.67478 1.87751,1.13075 3.06138,0.66384 1.18388,-0.46691 2.983,-1.85408 4.18244,-2.77246 1.19943,-0.91837 1.79914,-1.36792 2.28075,-1.80116 0.48161,-0.43323 0.84572,-0.85067 0.16559,-1.40564 -0.68013,-0.55496 -2.40786,-1.24855 -4.7353,-2.27599 -2.32744,-1.02744 -5.25458,-2.38892 -7.88901,-3.67648 -2.63444,-1.28755 -4.97615,-2.50133 -7.24441,-2.12331 z"
       id="path3403" /><path
       style="fill:none;fill-opacity:1;stroke:none;stroke-width:1.565;stroke-linecap:round;stroke-linejoin:bevel;stroke-dasharray:none;stroke-opacity:1;paint-order:normal"
       d="m 148.63478,174.03999 c 0.32665,-0.42966 0.65361,-0.85972 0.80344,-1.06255 0.14983,-0.20282 0.12203,-0.17782 0.0386,-0.0889 -0.0834,0.0889 -0.22221,0.24151 -0.56312,0.66753 -0.34092,0.42602 -0.88379,1.12522 -1.35881,1.74259 -0.47502,0.61736 -0.88218,1.15287 -1.33526,1.6145 -0.45309,0.46162 -0.95277,0.85006 -1.63907,1.38418 -0.6863,0.53411 -1.55921,1.21388 -4.22084,2.76755 -2.66163,1.55366 -7.11254,3.98144 -10.99425,5.9722 -3.88171,1.99075 -7.19444,3.54453 -9.32349,4.30508 -2.12905,0.76056 -3.07598,0.72726 -4.29279,0.67317 -1.21682,-0.0541 -2.70353,-0.129 -4.0855,-0.14022 -1.38197,-0.0112 -2.65895,0.0415 -4.15482,0.0319 -1.49586,-0.01 -3.21083,-0.0817 -4.91341,-0.1982 -1.70257,-0.11645 -3.392874,-0.27738 -4.79795,-0.36628 -1.405076,-0.0889 -2.524746,-0.10553 -3.824751,-0.19278 -1.300005,-0.0873 -2.780558,-0.24541 -5.160278,-0.43692 -2.379721,-0.1915 -5.658528,-0.41624 -7.854774,-0.52456 -2.196247,-0.10831 -3.309746,-0.1 -4.235091,-0.093 -0.925346,0.007 -1.66254,0.0125 -2.919183,-0.33511 -1.256644,-0.34758 -3.033307,-1.04955 -4.186949,-1.56254 -1.153642,-0.51298 -1.684171,-0.83761 -2.095907,-1.06674 -0.411736,-0.22913 -0.704762,-0.36231 -0.906797,-0.45388 -0.202035,-0.0916 -0.31306,-0.14151 -0.314867,-0.11317 -0.0018,0.0283 0.106152,0.13377 0.211432,0.23659"
       id="path3431" /><path
       id="path3987"
       style="fill:#323232;fill-opacity:1;stroke:#010000;stroke-width:1.565;stroke-linecap:round;stroke-linejoin:bevel;stroke-dasharray:none;stroke-opacity:1;paint-order:normal"
       d="m 106.57747,116.68073 c -2.1062,-1.4e-4 -6.17473,0.0483 -9.021151,0.39119 -3.795221,0.45725 -8.701853,1.40448 -11.864392,2.56109 -3.162539,1.1566 -4.714651,2.62604 -2.800346,3.00136 1.914305,0.37533 5.736603,1.12475 9.562207,1.87483 -1.91307,0.9619 -4.230767,2.1275 -6.416146,3.00033 -2.185376,0.87282 -7.268022,2.62597 -7.448641,4.97644 -0.180617,2.35047 0.784137,6.67826 2.39882,11.43496 1.614686,4.75672 3.948686,10.11542 7.377328,16.07602 3.42864,5.96061 7.987701,12.60519 12.554791,17.36742 4.56708,4.76221 9.19854,7.67768 13.10514,9.88932 3.90662,2.21162 8.47875,4.39728 11.32644,2.77605 2.73687,-1.55812 5.96008,-5.64352 9.20099,-9.82472 l -0.0269,0.15038 c 0.0175,-0.0607 0.0347,-0.12273 0.0522,-0.18345 0.12271,-0.15833 0.24521,-0.31542 0.36794,-0.47387 3.46018,2.80821 6.89323,5.59456 9.38496,6.72672 2.49171,1.13217 3.93519,0.58602 5.66735,-3.47008 1.73217,-4.05607 3.91342,-11.71074 5.81773,-17.35914 1.90431,-5.64842 3.54691,-9.33924 4.41059,-13.4922 0.86367,-4.15299 0.98184,-9.17108 0.27853,-13.38678 -0.7033,-4.21572 -2.24104,-8.02259 -3.78271,-10.53579 -1.54167,-2.51322 -5.65082,-5.89267 -5.65082,-5.89267 l -0.68523,-0.0889 c -0.0422,0.15469 -0.0936,0.30476 -0.15503,0.45062 -0.41891,0.99522 -1.28479,1.79826 -2.13424,2.46961 2.06934,2.06707 1.79238,4.5688 1.19166,7.77007 -0.8668,4.61927 -2.40329,10.69503 -4.20181,15.33395 -1.79851,4.63893 -3.66846,7.54619 -5.5795,8.42016 -1.91106,0.87397 -3.20963,-0.57923 -4.67,-2.20142 -1.46038,-1.62218 -2.94536,-3.25993 -4.52686,-5.18004 -1.5815,-1.92012 -3.25921,-4.12274 -4.98677,-6.17792 -1.72758,-2.05518 -3.50573,-3.96279 -4.96249,-5.85391 -1.45676,-1.89111 -2.59149,-3.76663 -3.65869,-5.40432 -1.06721,-1.63769 -2.06678,-3.03738 -3.04168,-4.83226 -0.9749,-1.79488 -1.92471,-3.98491 -2.79001,-5.88078 -0.86529,-1.89586 -1.65457,-3.51477 -1.68258,-4.24367 -2.2e-4,-0.006 6.4e-4,-0.01 5.1e-4,-0.0155 l -1.27692,-0.16588 c -0.14796,-0.002 -0.63222,-0.007 -1.33429,-0.007 z m 27.98331,3.46491 c 0.65974,0.1349 1.30592,0.27397 1.94355,0.41548 -0.0149,-0.056 -0.0272,-0.11198 -0.0362,-0.16795 z" /><path
       style="fill:none;fill-opacity:1;stroke:#010000;stroke-width:1.565;stroke-linecap:round;stroke-linejoin:bevel;stroke-dasharray:none;stroke-opacity:1;paint-order:normal"
       d="m 134.37448,180.38749 c 0,0 2.88788,-4.52827 3.58237,-7.08054 1.44017,-5.29266 1.03527,-16.42271 1.03527,-16.42271"
       id="path4304" /></g></svg>
